<?xml version="1.0" encoding="UTF-8" standalone="no"?>
<svg width="14px" height="14px" viewBox="0 0 14 14" version="1.1" xmlns="http://www.w3.org/2000/svg" xmlns:xlink="http://www.w3.org/1999/xlink" xmlns:sketch="http://www.bohemiancoding.com/sketch/ns">
    <!-- Generator: Sketch 3.2.2 (9983) - http://www.bohemiancoding.com/sketch -->
    <title>Close</title>
    <desc>Created with Sketch.</desc>
    <defs></defs>
    <g id="Page-1" stroke="none" stroke-width="1" fill="none" fill-rule="evenodd" sketch:type="MSPage">
        <g id="Icons" sketch:type="MSArtboardGroup" transform="translate(-529.000000, -307.000000)">
            <g id="Close" sketch:type="MSLayerGroup" transform="translate(529.000000, 307.000000)">
                <path d="M0,7 C0,3.13 3.13,0 7,0 C10.87,0 14,3.13 14,7 C14,10.87 10.87,14 7,14 C3.13,14 0,10.87 0,7" id="Fill-3" fill="#E5E5E5" sketch:type="MSShapeGroup"></path>
                <path d="M8.41421356,7 L9.83052713,5.58368643 C10.2151889,5.1990247 10.2189514,4.56209717 9.82842712,4.17157288 C9.43518017,3.77832592 8.80567806,3.78010838 8.41631357,4.16947287 L7,5.58578644 L5.58368643,4.16947287 C5.1990247,3.78481114 4.56209717,3.78104858 4.17157288,4.17157288 C3.77832592,4.56481983 3.78010838,5.19432194 4.16947287,5.58368643 L5.58578644,7 L4.16947287,8.41631357 C3.78481114,8.8009753 3.78104858,9.43790283 4.17157288,9.82842712 C4.56481983,10.2216741 5.19432194,10.2198916 5.58368643,9.83052713 L7,8.41421356 L8.41631357,9.83052713 C8.8009753,10.2151889 9.43790283,10.2189514 9.82842712,9.82842712 C10.2216741,9.43518017 10.2198916,8.80567806 9.83052713,8.41631357 L8.41421356,7 Z" id="Rectangle-5" fill="#A2A2A2" sketch:type="MSShapeGroup"></path>
            </g>
        </g>
    </g>
</svg>