<?xml version="1.0" encoding="utf-8"?>
<!-- Generator: Adobe Illustrator 17.0.1, SVG Export Plug-In . SVG Version: 6.00 Build 0)  -->
<!DOCTYPE svg PUBLIC "-//W3C//DTD SVG 1.1//EN" "http://www.w3.org/Graphics/SVG/1.1/DTD/svg11.dtd">
<svg version="1.1" id="Layer_1" xmlns="http://www.w3.org/2000/svg" xmlns:xlink="http://www.w3.org/1999/xlink" x="0px" y="0px"
	 width="126.099px" height="276.708px" viewBox="0 0 126.099 276.708" enable-background="new 0 0 126.099 276.708"
	 xml:space="preserve">
<g id="Page-1">
	<g id="Icons" transform="translate(-188.000000, -371.000000)">
		<path id="Username" fill="#F16059" d="M254.34,387.458c-0.067-0.743-0.045-1.249-0.045-1.913c0.349-0.18,0.967-1.294,1.069-2.228
			c0.27-0.022,0.697-0.27,0.821-1.283c0.068-0.54-0.191-0.844-0.36-0.934c0.439-1.283,1.361-5.231-1.699-5.636
			c-0.315-0.529-1.125-0.799-2.171-0.799c-4.196,0.079-4.702,3.038-3.78,6.435c-0.169,0.09-0.428,0.394-0.36,0.934
			c0.124,1.013,0.551,1.26,0.821,1.283c0.101,0.934,0.743,2.048,1.091,2.228c0,0.664,0.034,1.17-0.045,1.913
			c-0.821,2.137-6.424,1.08-6.682,5.209h18C260.741,388.538,255.173,389.595,254.34,387.458"/>
	</g>
</g>
<g id="Page-1_1_">
	<g id="Icons_1_" transform="translate(-188.000000, -371.000000)">
		<path id="Username_1_" fill="#C8C7C7" d="M203.34,387.458c-0.067-0.743-0.045-1.249-0.045-1.913
			c0.349-0.18,0.967-1.294,1.069-2.228c0.27-0.022,0.697-0.27,0.821-1.283c0.068-0.54-0.191-0.844-0.36-0.934
			c0.439-1.283,1.361-5.231-1.699-5.636c-0.315-0.529-1.125-0.799-2.171-0.799c-4.196,0.079-4.702,3.038-3.78,6.435
			c-0.169,0.09-0.428,0.394-0.36,0.934c0.124,1.013,0.551,1.26,0.821,1.283c0.101,0.934,0.743,2.048,1.091,2.228
			c0,0.664,0.034,1.17-0.045,1.913c-0.821,2.137-6.424,1.08-6.682,5.209h18C209.741,388.538,204.173,389.595,203.34,387.458"/>
	</g>
</g>
<g id="Page-1_2_">
	<g id="Icons_2_" transform="translate(-188.000000, -371.000000)">
		<path id="Username_2_" fill="#37424E" d="M229.007,387.459c-0.067-0.743-0.045-1.249-0.045-1.913
			c0.349-0.18,0.967-1.294,1.069-2.228c0.27-0.022,0.697-0.27,0.821-1.283c0.068-0.54-0.191-0.844-0.36-0.934
			c0.439-1.283,1.361-5.231-1.699-5.636c-0.315-0.529-1.125-0.799-2.171-0.799c-4.196,0.079-4.702,3.038-3.78,6.435
			c-0.169,0.09-0.428,0.394-0.36,0.934c0.124,1.013,0.551,1.26,0.821,1.283c0.101,0.934,0.743,2.048,1.091,2.228
			c0,0.664,0.034,1.17-0.045,1.913c-0.821,2.137-6.424,1.08-6.682,5.209h18C235.408,388.539,229.84,389.597,229.007,387.459"/>
	</g>
</g>
<g id="Page-1_3_">
	<g id="Icons_3_" transform="translate(-190.000000, -408.000000)">
		<path id="Password" fill="#C8C7C7" d="M208.975,444.215h-0.898v-2.197c0-2.769-2.277-5.021-5.077-5.021
			c-2.799,0-5.077,2.253-5.077,5.021v2.197h-0.898c-0.29,0-0.525,0.233-0.525,0.519v9.743c0,0.287,0.235,0.52,0.525,0.52h11.95
			c0.29,0,0.525-0.233,0.525-0.52v-9.743C209.5,444.447,209.265,444.215,208.975,444.215L208.975,444.215z M203.819,450.145v2.074
			c0,0.181-0.148,0.328-0.332,0.328h-0.974c-0.183,0-0.332-0.147-0.332-0.328v-2.074c-0.362-0.254-0.599-0.672-0.599-1.145
			c0-0.774,0.635-1.402,1.418-1.402s1.418,0.628,1.418,1.402C204.418,449.473,204.181,449.891,203.819,450.145L203.819,450.145z
			 M205.653,444.215h-5.306v-2.197c0-1.447,1.19-2.624,2.653-2.624s2.653,1.177,2.653,2.624V444.215L205.653,444.215z"/>
	</g>
</g>
<g id="Page-1_4_">
	<g id="Icons_4_" transform="translate(-190.000000, -408.000000)">
		<path id="Password_1_" fill="#37424E" d="M234.642,444.215h-0.898v-2.197c0-2.769-2.277-5.021-5.077-5.021
			c-2.799,0-5.077,2.253-5.077,5.021v2.197h-0.898c-0.29,0-0.525,0.233-0.525,0.519v9.743c0,0.287,0.235,0.52,0.525,0.52h11.95
			c0.29,0,0.525-0.233,0.525-0.52v-9.743C235.167,444.448,234.932,444.215,234.642,444.215L234.642,444.215z M229.486,450.145v2.074
			c0,0.181-0.148,0.328-0.332,0.328h-0.974c-0.183,0-0.332-0.147-0.332-0.328v-2.074c-0.362-0.254-0.599-0.672-0.599-1.145
			c0-0.774,0.635-1.402,1.418-1.402s1.418,0.628,1.418,1.402C230.085,449.473,229.848,449.891,229.486,450.145L229.486,450.145z
			 M231.32,444.215h-5.306v-2.197c0-1.447,1.19-2.624,2.653-2.624s2.653,1.177,2.653,2.624V444.215L231.32,444.215z"/>
	</g>
</g>
<g id="Page-1_5_">
	<g id="Icons_5_" transform="translate(-190.000000, -408.000000)">
		<path id="Password_2_" fill="#F16059" d="M259.975,444.215h-0.898v-2.197c0-2.769-2.277-5.021-5.077-5.021
			c-2.799,0-5.077,2.253-5.077,5.021v2.197h-0.898c-0.29,0-0.525,0.233-0.525,0.519v9.743c0,0.287,0.235,0.52,0.525,0.52h11.95
			c0.29,0,0.525-0.233,0.525-0.52v-9.743C260.5,444.448,260.265,444.215,259.975,444.215L259.975,444.215z M254.819,450.145v2.074
			c0,0.181-0.148,0.328-0.332,0.328h-0.974c-0.183,0-0.332-0.147-0.332-0.328v-2.074c-0.362-0.254-0.599-0.672-0.599-1.145
			c0-0.774,0.635-1.402,1.418-1.402s1.418,0.628,1.418,1.402C255.418,449.473,255.181,449.891,254.819,450.145L254.819,450.145z
			 M256.653,444.215h-5.306v-2.197c0-1.447,1.19-2.624,2.653-2.624s2.653,1.177,2.653,2.624V444.215L256.653,444.215z"/>
	</g>
</g>
<g id="Page-1_6_">
	<g id="Icons_6_" transform="translate(-529.000000, -307.000000)">
		<g id="Close" transform="translate(529.000000, 307.000000)">
			<path id="Fill-3" fill="#E5E5E5" d="M80.123,13.877c0-3.87,3.13-7,7-7s7,3.13,7,7s-3.13,7-7,7
				C83.253,20.877,80.123,17.747,80.123,13.877"/>
			<path id="Rectangle-5" fill="#A2A2A1" d="M88.537,13.877l1.416-1.416c0.385-0.385,0.388-1.022-0.002-1.412
				c-0.393-0.393-1.023-0.391-1.412-0.002l-1.416,1.416l-1.416-1.416c-0.385-0.385-1.022-0.388-1.412,0.002
				c-0.393,0.393-0.391,1.023-0.002,1.412l1.416,1.416l-1.416,1.416c-0.385,0.385-0.388,1.022,0.002,1.412
				c0.393,0.393,1.023,0.391,1.412,0.002l1.416-1.416l1.416,1.416c0.385,0.385,1.022,0.388,1.412-0.002
				c0.393-0.393,0.391-1.023,0.002-1.412L88.537,13.877z"/>
		</g>
	</g>
</g>
<g id="Page-1_7_">
	<g id="Icons_7_" transform="translate(-317.000000, -285.000000)">
		<path id="Dashboard" fill="#C8C7C7" d="M323,346.667c-0.55,0-1,0.45-1,1v9c0,0.55,0.45,1,1,1h2c0.55,0,1-0.45,1-1v-9
			c0-0.55-0.45-1-1-1H323L323,346.667z M329,349.667c-0.55,0-1,0.45-1,1v6c0,0.55,0.45,1,1,1h2c0.55,0,1-0.45,1-1v-6
			c0-0.55-0.45-1-1-1H329L329,349.667z M335,341.667c-0.55,0-1,0.45-1,1v14c0,0.55,0.45,1,1,1h2c0.55,0,1-0.45,1-1v-14
			c0-0.55-0.45-1-1-1H335L335,341.667z"/>
	</g>
</g>
<g id="Page-1_8_">
	<g id="Icons_8_" transform="translate(-462.000000, -285.000000)">
		<path id="Inventory" fill="#C8C7C7" d="M497.628,345.286c0.055-0.109,0.135-0.162,0.243-0.162h1.309v-3.536
			c0-0.076,0.027-0.139,0.08-0.187c0.054-0.048,0.118-0.073,0.195-0.073h2.422c0.185,0,0.275,0.087,0.275,0.26v3.536h1.309
			c0.107,0,0.188,0.049,0.242,0.146c0.054,0.109,0.049,0.205-0.015,0.292l-2.796,3.942c-0.054,0.076-0.123,0.113-0.21,0.113
			c-0.097,0-0.172-0.037-0.226-0.113l-2.811-3.942C497.58,345.465,497.574,345.373,497.628,345.286z M507.663,349.298
			c0.28,0,0.517,0.1,0.711,0.3c0.194,0.201,0.291,0.441,0.291,0.723l0.002,6.002c0,0.281-0.097,0.519-0.291,0.713
			s-0.431,0.292-0.711,0.292h-13.996c-0.279,0-0.517-0.098-0.711-0.292c-0.193-0.194-0.291-0.432-0.291-0.713v-6.002
			c0-0.282,0.098-0.522,0.291-0.723c0.194-0.199,0.432-0.3,0.711-0.3h3.997c0.227,0,0.429,0.065,0.606,0.195
			c0.178,0.129,0.298,0.303,0.363,0.519c0.184,0.552,0.013,1.285,0.471,1.625c0.459,0.341,0.978,0.512,1.56,0.512
			s1.103-0.171,1.567-0.512c0.463-0.341,0.784-1.013,0.966-1.565c0.066-0.216,0.187-0.389,0.364-0.519
			c0.178-0.129,0.375-0.195,0.59-0.195L507.663,349.298L507.663,349.298z"/>
	</g>
</g>
<g id="Page-1_9_">
	<g id="Icons_9_" transform="translate(-404.000000, -285.000000)">
		<path id="Orders" fill="#C8C7C7" d="M461.82,341.667c-0.7,0-1.27,0.53-1.27,1.19v13.62c0,0.66,0.56,1.19,1.26,1.19h10.48
			c0.7,0,1.26-0.53,1.26-1.18v-9.82h-4.14c-0.86,0-0.86-0.08-0.86-0.89v-4.11H461.82L461.82,341.667z M469.55,341.667v3.41
			c0,0.32,0,0.59,0.34,0.59h3.66L469.55,341.667L469.55,341.667z"/>
	</g>
</g>
<g id="Page-1_10_">
	<g id="Icons_10_" transform="translate(-346.000000, -285.000000)">
		<path id="Customers" fill="#C8C7C7" d="M435.147,326.75c-0.06-0.66-0.04-1.11-0.04-1.7c0.31-0.16,0.86-1.15,0.95-1.98
			c0.24-0.02,0.62-0.24,0.73-1.14c0.06-0.48-0.17-0.75-0.32-0.83c0.39-1.14,1.21-4.65-1.51-5.01c-0.28-0.47-1-0.71-1.93-0.71
			c-3.73,0.07-4.18,2.7-3.36,5.72c-0.15,0.08-0.38,0.35-0.32,0.83c0.11,0.9,0.49,1.12,0.73,1.14c0.09,0.83,0.66,1.82,0.97,1.98
			c0,0.59,0.03,1.04-0.04,1.7c-0.73,1.9-5.71,0.96-5.94,4.63h16C440.837,327.71,435.887,328.65,435.147,326.75"/>
	</g>
</g>
<g id="Page-1_11_">
	<g id="Icons_11_" transform="translate(-375.000000, -285.000000)">
		<path id="Finance" fill="#C8C7C7" d="M461.067,343.328c-3.866,0-7,3.134-7,7s3.134,7,7,7s7-3.134,7-7h-7V343.328z
			 M462.067,341.328v8h8C470.067,345.328,467.067,341.328,462.067,341.328z"/>
	</g>
</g>
<g id="Page-1_12_">
	<g id="Icons_12_" transform="translate(-430.000000, -285.000000)">
		<path id="Settings" fill="#C8C7C7" d="M547.215,296.913l-0.077-0.027l-0.297-0.725l0.032-0.074
			c0.901-2.085,0.839-2.147,0.689-2.298l-1.201-1.196c-0.049-0.05-0.135-0.085-0.21-0.085c-0.067,0-0.271,0-2.046,0.82l-0.071,0.033
			l-0.732-0.301l-0.029-0.074c-0.834-2.109-0.92-2.109-1.127-2.109h-1.697c-0.207,0-0.301,0-1.074,2.112l-0.03,0.077l-0.728,0.303
			l-0.07-0.03c-1.2-0.516-1.901-0.778-2.084-0.778c-0.074,0-0.161,0.034-0.21,0.083l-1.202,1.2
			c-0.153,0.153-0.216,0.218,0.732,2.259l0.035,0.075l-0.298,0.724l-0.073,0.029c-2.114,0.834-2.114,0.915-2.114,1.132v1.697
			c0,0.218,0,0.308,2.118,1.083l0.076,0.027l0.298,0.722l-0.032,0.074c-0.901,2.085-0.844,2.142-0.69,2.297l1.199,1.198
			c0.05,0.049,0.137,0.085,0.211,0.085c0.068,0,0.272,0,2.047-0.82l0.071-0.034l0.732,0.302l0.029,0.075
			c0.835,2.108,0.92,2.108,1.128,2.108h1.697c0.213,0,0.301,0,1.076-2.113l0.029-0.078l0.729-0.301l0.069,0.029
			c1.2,0.518,1.9,0.78,2.082,0.78c0.074,0,0.161-0.033,0.211-0.084l1.204-1.202c0.152-0.154,0.215-0.217-0.734-2.257l-0.036-0.076
			l0.297-0.72l0.072-0.029c2.117-0.838,2.117-0.92,2.117-1.137v-1.696C549.333,297.775,549.333,297.685,547.215,296.913
			L547.215,296.913z M541.333,301.629c-1.516,0-2.749-1.235-2.749-2.752c0-1.516,1.233-2.749,2.749-2.749
			c1.515,0,2.748,1.233,2.748,2.749C544.081,300.394,542.848,301.629,541.333,301.629L541.333,301.629z"/>
	</g>
</g>
<g id="Page-1_13_">
	<g id="Icons_13_" transform="translate(-246.000000, -188.000000)">
		<path id="Export_XLS" fill="#3F9A46" d="M349.333,236.38h20v-20h-20V236.38z M351.333,218.38h16v16h-16V218.38z M366.333,232.38
			h-4.084l-2.788-3.941l-2.927,3.941h-4.1l5.089-6.401l-4.111-5.599h4.145l1.924,3.044l2.05-3.044h4.215l-4.307,5.599
			L366.333,232.38L366.333,232.38z"/>
	</g>
</g>
<g id="Page-1_14_">
	<g id="Icons_14_" transform="translate(-220.000000, -188.000000)">
		<path id="Export_PDF" fill="#9F9F9F" d="M323.333,265.333h20v-20h-20V265.333z M325.333,247.333h16v16h-16V247.333z
			 M327.5,262.005c-0.298,0-0.514-0.123-0.644-0.368c-0.119-0.223-0.144-0.521-0.071-0.843c0.083-0.368,0.288-0.703,0.644-1.052
			c0.444-0.432,1.097-0.868,1.839-1.227c0.371-0.181,0.812-0.366,1.289-0.543c0.55-0.859,1.336-2.207,1.901-3.692
			c0.064-0.169,0.125-0.338,0.183-0.508c-0.176-0.405-0.285-0.752-0.369-1.051c-0.153-0.545-0.251-1.033-0.291-1.451
			c-0.04-0.411-0.032-0.818,0.022-1.211c0.052-0.392,0.14-0.669,0.277-0.872c0.174-0.253,0.405-0.376,0.568-0.437
			c0.127-0.046,0.22-0.058,0.282-0.065c0.12-0.021,0.261-0.045,0.445,0.01c0.114,0.034,0.225,0.095,0.346,0.167l0.003-0.006
			c0.552,0.259,0.5,0.717,0.428,1.351l-0.03,0.264c-0.078,0.75-0.308,1.97-0.711,3.244c0.031,0.063,0.063,0.127,0.099,0.193
			c0.302,0.568,0.739,1.221,1.266,1.889c0.244,0.31,0.526,0.645,0.821,0.974c0.47-0.031,0.934-0.028,1.385,0.007
			c0.472,0.039,0.946,0.116,1.372,0.22c0.484,0.118,0.835,0.255,1.135,0.445c0.38,0.238,0.674,0.558,0.826,0.898
			c0.174,0.385,0.181,0.823,0.018,1.171c-0.145,0.307-0.426,0.537-0.811,0.663c-0.36,0.113-0.713,0.114-1.087,0.005
			c-0.351-0.106-0.745-0.317-1.208-0.643c-0.452-0.32-0.88-0.688-1.388-1.193c-0.2-0.201-0.406-0.413-0.609-0.632
			c-0.33,0.038-0.696,0.094-1.16,0.179c-0.53,0.097-1.185,0.228-2.02,0.471c-0.374,0.11-0.746,0.231-1.101,0.356
			c-0.047,0.072-0.091,0.139-0.133,0.201c-0.711,1.051-1.404,1.878-2.004,2.388c-0.458,0.388-0.881,0.61-1.294,0.679
			C327.641,261.999,327.568,262.005,327.5,262.005L327.5,262.005z M329.573,259.372c-0.83,0.414-1.302,0.813-1.513,1.018
			c-0.292,0.286-0.363,0.473-0.393,0.605c-0.006,0.03-0.011,0.056-0.014,0.081c0.227-0.06,0.482-0.21,0.774-0.458
			C328.689,260.394,329.076,260.011,329.573,259.372L329.573,259.372z M336.631,257.656c0.016,0.015,0.031,0.032,0.047,0.046
			c0.47,0.469,0.862,0.807,1.272,1.096c0.37,0.262,0.697,0.44,0.943,0.514c0.196,0.057,0.372,0.058,0.552,0.002
			c0.094-0.031,0.224-0.091,0.269-0.188c0.039-0.085,0.05-0.251-0.025-0.414c-0.079-0.179-0.254-0.36-0.481-0.503
			c-0.216-0.136-0.483-0.238-0.87-0.332c-0.381-0.094-0.805-0.162-1.23-0.197C336.952,257.667,336.792,257.659,336.631,257.656
			L336.631,257.656z M333.207,254.85c-0.398,0.996-0.88,1.92-1.319,2.676c0.036-0.01,0.072-0.021,0.109-0.032
			c0.875-0.255,1.558-0.391,2.112-0.492c0.218-0.041,0.416-0.074,0.6-0.103c-0.156-0.184-0.305-0.366-0.444-0.543
			C333.858,255.839,333.498,255.328,333.207,254.85L333.207,254.85z M333.31,249.56c-0.005,0-0.064,0.022-0.071,0.023
			c-0.037,0.004-0.051,0.006-0.08,0.017c-0.032,0.011-0.093,0.04-0.131,0.094c-0.028,0.042-0.086,0.168-0.129,0.487
			c-0.044,0.32-0.05,0.667-0.018,1.003c0.03,0.308,0.097,0.666,0.2,1.066c0.181-0.745,0.293-1.407,0.341-1.874l0.031-0.271
			c0.018-0.168,0.039-0.341,0.042-0.443C333.435,249.625,333.347,249.572,333.31,249.56L333.31,249.56z"/>
	</g>
</g>
<g id="Page-1_15_">
	<g id="Icons_15_" transform="translate(-126.000000, -104.000000)">
		<path id="Export_Email" fill="#9F9F9F" d="M149.142,186.978l-8.364,6.826c-0.445,0.367-1.176,0.367-1.621,0l-8.364-6.826
			c-0.285-0.232-0.794-0.031-0.794,0.391v11.912c0,0.578,0.47,1.052,1.042,1.052h17.888c0.573,0,1.042-0.474,1.042-1.052v-11.912
			C149.97,186.898,149.479,186.706,149.142,186.978z M132.097,186.994l7.064,5.762c0.445,0.361,1.176,0.361,1.621,0l7.061-5.762
			c0.445-0.361,0.342-0.66-0.23-0.66h-15.285C131.748,186.336,131.651,186.633,132.097,186.994z"/>
	</g>
</g>
<g id="Page-1_16_">
	<g id="Icons_16_" transform="translate(-302.000000, -200.000000)">
		<path id="Edit" fill="#979797" d="M334.674,295.932c-0.05,0.24,0.16,0.45,0.39,0.39l3.17-0.77l-2.84-2.86L334.674,295.932
			L334.674,295.932z M348.374,283.982l-1.27-1.28c-0.49-0.49-1.28-0.49-1.78,0l-1.21,1.22l2.85,2.86l1.41-1.42
			C348.764,284.982,348.764,284.362,348.374,283.982L348.374,283.982z M343.374,284.672l2.84,2.86l-7.21,7.24l-2.84-2.86
			L343.374,284.672L343.374,284.672z"/>
	</g>
</g>
<g id="Page-1_17_">
	<g id="Icons_17_" transform="translate(-164.000000, -251.000000)">
		<path id="Cellphone" fill="#35A649" d="M223.5,331.833h10v14h-10V331.833z M228.5,348.833c-0.551,0-1-0.448-1-1.005
			c0-0.547,0.449-0.995,1-0.995s1,0.448,1,0.995C229.5,348.385,229.051,348.833,228.5,348.833L228.5,348.833z M232.96,329.833h-8.92
			c-0.85,0-1.54,0.7-1.54,1.57v17.86c0,0.87,0.69,1.57,1.54,1.57h8.92c0.85,0,1.54-0.7,1.54-1.57v-17.86
			C234.5,330.533,233.81,329.833,232.96,329.833L232.96,329.833z"/>
	</g>
</g>
<g id="Page-1_18_">
	<g id="Icons_18_" transform="translate(-423.000000, -251.000000)">
		<path id="Contact" fill="#979797" d="M519.245,347.763c1.04-1.04,1.68-1.94,3.97-0.1s0.53,3.06-0.48,4.07
			c-1.16,1.16-5.48,0.06-9.75-4.21c-4.28-4.28-5.38-8.6-4.22-9.76c1.01-1.01,2.23-2.77,4.07-0.48c1.84,2.29,0.94,2.93-0.1,3.97
			c-0.73,0.72,0.79,2.55,2.37,4.14C516.685,346.973,518.525,348.493,519.245,347.763z"/>
	</g>
</g>
<g id="Page-1_19_">
	<g id="Icons_19_" transform="translate(-494.000000, -244.000000)">
		<path id="Data" fill="#878787" d="M498,353.667h15.96v2H498V353.667z M498,349.667h15.96v2H498V349.667z M498,357.667h15.96v2H498
			V357.667z M498,361.667h15.96v2H498V361.667z"/>
	</g>
</g>
<g id="Page-1_21_">
	<g id="Icons_21_" transform="translate(-126.000000, -129.000000)">
		<path id="Email_Contact" fill="#3CA54B" d="M201.502,237.719l-6.7,5.851c-0.357,0.314-0.942,0.314-1.299,0l-6.7-5.851
			c-0.228-0.199-0.636-0.026-0.636,0.335v10.211c0,0.495,0.376,0.901,0.835,0.901h14.33c0.459,0,0.835-0.406,0.835-0.901v-10.211
			C202.164,237.651,201.771,237.486,201.502,237.719z M187.846,237.733l5.659,4.939c0.357,0.309,0.942,0.309,1.299,0l5.656-4.939
			c0.357-0.309,0.274-0.566-0.184-0.566h-12.245C187.567,237.169,187.49,237.423,187.846,237.733z"/>
	</g>
</g>
<g id="Page-1_22_">
	<g id="Icons_22_" transform="translate(-455.000000, -243.000000)">
		<path id="Graph" fill="#878787" d="M568.333,332.04h2v13h-2V332.04z M564.333,335.04h2v10h-2V335.04z M572.333,338.04h2v7h-2
			V338.04z M576.333,329.08h2v15.96h-2V329.08z"/>
	</g>
</g>
<g id="Page-1_23_">
	<g id="Icons_23_" transform="translate(-521.000000, -355.000000)">
		<path id="Moon" fill="#9899A3" d="M622.11,478.769c-0.125,0.007-0.243,0.007-0.368,0.007c-2.018,0-3.918-0.785-5.347-2.216
			s-2.212-3.335-2.212-5.357c0-1.153,0.257-2.265,0.735-3.272c0.215-0.445,0.472-0.868,0.77-1.264
			c-0.527,0.056-1.033,0.167-1.526,0.32c-3.245,1.028-5.596,4.064-5.596,7.656c0,4.432,3.585,8.024,8.01,8.024
			c2.448,0,4.632-1.098,6.103-2.828c0.333-0.396,0.638-0.827,0.888-1.285C623.095,478.672,622.61,478.748,622.11,478.769
			L622.11,478.769z"/>
	</g>
</g>
<g id="Page-1_24_">
	<g id="Icons_24_" transform="translate(-482.000000, -353.000000)">
		<path id="Sun" fill="#FDB515" d="M498.875,484.297c0.177,0,0.354-0.068,0.489-0.203l0.979-0.979c0.27-0.27,0.27-0.709,0-0.979
			s-0.709-0.27-0.979,0l-0.979,0.979c-0.27,0.27-0.27,0.709,0,0.979C498.521,484.229,498.698,484.297,498.875,484.297
			L498.875,484.297z M487.749,488.5c0-0.382-0.31-0.692-0.692-0.692h-1.385c-0.382,0-0.692,0.31-0.692,0.692s0.31,0.692,0.692,0.692
			h1.385C487.439,489.192,487.749,488.882,487.749,488.5L487.749,488.5z M488.595,492.906l-0.979,0.979
			c-0.27,0.27-0.27,0.709,0,0.979c0.135,0.135,0.312,0.203,0.489,0.203s0.354-0.068,0.489-0.203l0.979-0.979
			c0.27-0.27,0.27-0.709,0-0.979C489.304,492.635,488.865,492.635,488.595,492.906L488.595,492.906z M488.595,484.094
			c0.135,0.135,0.312,0.203,0.489,0.203s0.354-0.068,0.489-0.203c0.27-0.27,0.27-0.709,0-0.979l-0.979-0.979
			c-0.27-0.27-0.709-0.27-0.979,0s-0.27,0.709,0,0.979L488.595,484.094L488.595,484.094z M493.98,482.269
			c0.382,0,0.692-0.31,0.692-0.692v-1.385c0-0.382-0.31-0.692-0.692-0.692s-0.692,0.31-0.692,0.692v1.385
			C493.288,481.959,493.598,482.269,493.98,482.269L493.98,482.269z M502.288,487.808h-1.385c-0.382,0-0.692,0.31-0.692,0.692
			s0.31,0.692,0.692,0.692h1.385c0.382,0,0.692-0.31,0.692-0.692S502.67,487.808,502.288,487.808L502.288,487.808z M499.365,492.906
			c-0.27-0.27-0.709-0.27-0.979,0s-0.27,0.709,0,0.979l0.979,0.979c0.135,0.135,0.312,0.203,0.489,0.203s0.354-0.068,0.489-0.203
			c0.27-0.27,0.27-0.709,0-0.979L499.365,492.906L499.365,492.906z M493.98,494.731c-0.382,0-0.692,0.31-0.692,0.692v1.385
			c0,0.382,0.31,0.692,0.692,0.692s0.692-0.31,0.692-0.692v-1.385C494.672,495.041,494.362,494.731,493.98,494.731L493.98,494.731z
			 M493.98,483.654c-2.672,0-4.846,2.174-4.846,4.846s2.174,4.846,4.846,4.846s4.846-2.174,4.846-4.846
			S496.652,483.654,493.98,483.654L493.98,483.654z"/>
	</g>
</g>
<g id="Page-1_25_">
	<g id="Icons_25_" transform="translate(-561.000000, -324.000000)">
		<path id="Skype" fill="#30AEE4" d="M609.541,464.555c0.115-0.554,0.176-1.127,0.176-1.716c0-4.415-3.416-7.994-7.631-7.994
			c-0.445,0-0.88,0.041-1.306,0.117c-0.681-0.45-1.489-0.712-2.354-0.712c-2.445,0-4.426,2.076-4.426,4.637
			c0,0.855,0.222,1.656,0.608,2.345c-0.102,0.519-0.154,1.057-0.154,1.608c0,4.416,3.416,7.995,7.631,7.995
			c0.478,0,0.944-0.046,1.397-0.134c0.623,0.35,1.335,0.55,2.092,0.55c2.444,0,4.425-2.076,4.425-4.636
			C610,465.874,609.835,465.176,609.541,464.555L609.541,464.555z M605.999,466.66c-0.352,0.523-0.874,0.938-1.55,1.232
			c-0.669,0.291-1.472,0.44-2.384,0.44c-1.096,0-2.016-0.202-2.732-0.601c-0.513-0.29-0.935-0.682-1.257-1.168
			c-0.324-0.489-0.488-0.975-0.488-1.444c0-0.292,0.107-0.547,0.318-0.754c0.209-0.206,0.477-0.311,0.797-0.311
			c0.262,0,0.489,0.082,0.672,0.244c0.176,0.157,0.326,0.388,0.447,0.686c0.135,0.325,0.282,0.599,0.438,0.814
			c0.15,0.208,0.365,0.383,0.64,0.519c0.277,0.137,0.65,0.207,1.108,0.207c0.631,0,1.149-0.141,1.538-0.419
			c0.38-0.272,0.564-0.598,0.564-0.997c0-0.316-0.096-0.563-0.294-0.759c-0.209-0.204-0.482-0.361-0.815-0.471
			c-0.347-0.113-0.818-0.236-1.4-0.364c-0.793-0.177-1.465-0.388-2-0.626c-0.548-0.244-0.989-0.583-1.311-1.005
			c-0.327-0.43-0.494-0.968-0.494-1.602c0-0.604,0.174-1.149,0.518-1.618c0.341-0.466,0.84-0.829,1.481-1.077
			c0.633-0.245,1.386-0.37,2.239-0.37c0.681,0,1.28,0.083,1.781,0.245c0.503,0.164,0.927,0.386,1.26,0.658
			c0.335,0.275,0.585,0.568,0.742,0.874c0.158,0.308,0.238,0.615,0.238,0.911c0,0.286-0.105,0.546-0.313,0.773
			c-0.209,0.227-0.473,0.343-0.784,0.343c-0.282,0-0.504-0.073-0.657-0.214c-0.143-0.133-0.291-0.34-0.455-0.636
			c-0.19-0.378-0.421-0.677-0.685-0.888c-0.257-0.205-0.686-0.308-1.275-0.308c-0.547,0-0.992,0.115-1.322,0.342
			c-0.318,0.218-0.473,0.469-0.473,0.766c0,0.183,0.05,0.334,0.153,0.465c0.108,0.14,0.262,0.26,0.454,0.362
			c0.2,0.106,0.408,0.19,0.615,0.249c0.212,0.062,0.567,0.153,1.055,0.271c0.618,0.139,1.186,0.294,1.687,0.463
			c0.509,0.171,0.947,0.38,1.306,0.624c0.365,0.249,0.655,0.569,0.86,0.952c0.206,0.384,0.31,0.857,0.31,1.408
			C606.534,465.534,606.354,466.135,605.999,466.66L605.999,466.66z"/>
	</g>
</g>
<g id="Page-1_27_">
	<g id="Icons_27_" transform="translate(-600.000000, -155.000000)">
		<path id="Down" fill="#939292" d="M605.204,320.78c-0.137,0.123-0.204,0.269-0.204,0.438s0.068,0.315,0.204,0.439l4.812,4.753
			c0.136,0.123,0.297,0.185,0.483,0.185c0.187,0,0.347-0.062,0.484-0.185l4.813-4.753c0.136-0.123,0.203-0.27,0.203-0.439
			s-0.068-0.315-0.203-0.438c-0.137-0.123-0.297-0.185-0.484-0.185h-9.625C605.501,320.595,605.341,320.656,605.204,320.78"/>
	</g>
</g>
<g id="Page-1_28_">
	<g id="Icons_28_" transform="translate(-600.000000, -146.000000)">
		<path id="Up" fill="#939292" d="M605.688,309h9.625c0.187,0,0.347-0.062,0.484-0.185c0.136-0.123,0.203-0.269,0.203-0.438
			c0-0.169-0.068-0.315-0.203-0.439l-4.813-4.753c-0.137-0.123-0.297-0.185-0.484-0.185c-0.186,0-0.347,0.062-0.483,0.185
			l-4.812,4.753c-0.137,0.123-0.204,0.27-0.204,0.439s0.068,0.315,0.204,0.438S605.501,309,605.688,309"/>
	</g>
</g>
<g id="Page-1_30_">
	<g id="Icons_30_" transform="translate(-600.000000, -155.000000)">
		<path id="Down_1_" fill="#939292" d="M622.204,320.78c-0.137,0.123-0.204,0.269-0.204,0.438s0.068,0.315,0.204,0.439l4.812,4.753
			c0.136,0.123,0.297,0.185,0.483,0.185c0.187,0,0.347-0.062,0.484-0.185l4.813-4.753c0.136-0.123,0.203-0.27,0.203-0.439
			s-0.068-0.315-0.203-0.438c-0.137-0.123-0.297-0.185-0.484-0.185h-9.625C622.501,320.595,622.341,320.656,622.204,320.78"/>
	</g>
</g>
<g id="Page-1_29_">
	<g id="Icons_29_" transform="translate(-600.000000, -146.000000)">
		<path id="Up_1_" fill="#FFFFFF" d="M622.688,309h9.625c0.187,0,0.347-0.062,0.484-0.185c0.136-0.123,0.203-0.269,0.203-0.438
			c0-0.169-0.068-0.315-0.203-0.439l-4.813-4.753c-0.137-0.123-0.297-0.185-0.484-0.185c-0.186,0-0.347,0.062-0.483,0.185
			l-4.812,4.753c-0.137,0.123-0.204,0.27-0.204,0.439s0.068,0.315,0.204,0.438S622.501,309,622.688,309"/>
	</g>
</g>
<g id="Page-1_32_">
	<g id="Icons_32_" transform="translate(-600.000000, -155.000000)">
		<path id="Down_2_" fill="#FFFFFF" d="M640.704,320.78c-0.137,0.123-0.204,0.269-0.204,0.438s0.068,0.315,0.204,0.439l4.812,4.753
			c0.136,0.123,0.297,0.185,0.483,0.185c0.187,0,0.347-0.062,0.484-0.185l4.813-4.753c0.136-0.123,0.203-0.27,0.203-0.439
			s-0.068-0.315-0.203-0.438c-0.137-0.123-0.297-0.185-0.484-0.185h-9.625C641.001,320.595,640.841,320.656,640.704,320.78"/>
	</g>
</g>
<g id="Page-1_31_">
	<g id="Icons_31_" transform="translate(-600.000000, -146.000000)">
		<path id="Up_2_" fill="#939292" d="M641.188,309h9.625c0.187,0,0.347-0.062,0.484-0.185c0.136-0.123,0.203-0.269,0.203-0.438
			c0-0.169-0.068-0.315-0.203-0.439l-4.813-4.753C646.347,303.062,646.187,303,646,303c-0.186,0-0.347,0.062-0.483,0.185
			l-4.812,4.753c-0.137,0.123-0.204,0.27-0.204,0.439s0.068,0.315,0.204,0.438S641.001,309,641.188,309"/>
	</g>
</g>
<g id="Page-1_33_">
	<g id="Icons_33_" transform="translate(-130.000000, -186.000000)">
		<path id="Print" fill="#9F9F9F" d="M193.55,317.25h10v3h1v-2.7c0-0.69-0.55-1.3-1.14-1.3h-9.63c-0.75,0-1.23,0.56-1.23,1.25v2.75
			h1V317.25L193.55,317.25z M194.55,334.25h8v-1h-8V334.25z M194.55,332.25h6v-1h-6V332.25z M194.55,330.25h8v-1h-8V330.25z
			 M194.55,328.25h4v-1h-4V328.25z M205.55,324.735c-0.69,0-1.25-0.56-1.25-1.25s0.56-1.25,1.25-1.25s1.25,0.56,1.25,1.25
			S206.24,324.735,205.55,324.735L205.55,324.735z M193.55,326.25h10v9h-10V326.25z M207.3,321.25h-17.5c-0.69,0-1.25,0.31-1.25,1
			V328c0,0.69,0.56,1.25,1.25,1.25h2.75v5.6c0,0.69,0.23,1.4,0.92,1.4h10.16c0.69,0,0.92-0.56,0.92-1.25v-5.75h2.83
			c0.69,0,1.17-0.56,1.17-1.25v-5.5C208.55,321.81,207.99,321.25,207.3,321.25L207.3,321.25z"/>
	</g>
</g>
<g id="Page-1_26_">
	<g id="Icons_26_" transform="translate(-327.000000, -200.000000)">
		<path id="Refresh" fill="#979797" d="M424.806,352.476c-3.851,0-6.973-3.046-6.973-6.809s3.121-6.809,6.973-6.809v-2.334
			l5.23,3.402l-5.23,2.961v-2.966c-3.247,0-5.889,2.578-5.889,5.746s2.642,5.746,5.889,5.746s5.889-2.557,5.889-5.746h1.084
			C431.779,349.441,428.657,352.476,424.806,352.476"/>
	</g>
</g>
<g id="Page-1_34_">
	<g id="Icons_34_" transform="translate(-463.000000, -311.000000)">
		<path id="Search" fill="#9F9F9F" d="M541.84,478.862c0-3.21-2.14-6.5-6.42-6.5c-4.28,0-6.42,3.29-6.42,6.5s2.13,6.5,6.42,6.5
			c1.54,0,2.8-0.42,3.78-1.12l5.52,5.34l1.4-1.44l-5.5-5.31C541.43,481.682,541.84,480.262,541.84,478.862L541.84,478.862z
			 M540.84,478.862c0,2.79-1.81,5.5-5.42,5.5c-3.62,0-5.42-2.71-5.42-5.5s1.82-5.5,5.42-5.5
			C539.03,473.362,540.84,476.072,540.84,478.862L540.84,478.862z"/>
	</g>
</g>
<g id="Page-1_35_">
	<g id="Icons_35_" transform="translate(-317.000000, -285.000000)">
		<path id="Dashboard_1_" fill="#3AA54C" d="M321.98,474.667c-0.55,0-1,0.45-1,1v9c0,0.55,0.45,1,1,1h2c0.55,0,1-0.45,1-1v-9
			c0-0.55-0.45-1-1-1H321.98L321.98,474.667z M327.98,477.667c-0.55,0-1,0.45-1,1v6c0,0.55,0.45,1,1,1h2c0.55,0,1-0.45,1-1v-6
			c0-0.55-0.45-1-1-1H327.98L327.98,477.667z M333.98,469.667c-0.55,0-1,0.45-1,1v14c0,0.55,0.45,1,1,1h2c0.55,0,1-0.45,1-1v-14
			c0-0.55-0.45-1-1-1H333.98L333.98,469.667z"/>
	</g>
</g>
<g id="Page-1_36_">
	<g id="Icons_36_" transform="translate(-462.000000, -285.000000)">
		<path id="Inventory_1_" fill="#3AA54C" d="M496.461,473.625c0.055-0.109,0.135-0.162,0.243-0.162h1.309v-3.536
			c0-0.076,0.027-0.139,0.08-0.187c0.054-0.048,0.118-0.073,0.195-0.073h2.422c0.185,0,0.275,0.087,0.275,0.26v3.536h1.309
			c0.107,0,0.188,0.049,0.242,0.146c0.054,0.109,0.049,0.205-0.015,0.292l-2.796,3.942c-0.054,0.076-0.123,0.113-0.21,0.113
			c-0.097,0-0.172-0.037-0.226-0.113l-2.811-3.942C496.413,473.804,496.407,473.712,496.461,473.625z M506.496,477.637
			c0.28,0,0.517,0.1,0.711,0.3c0.194,0.201,0.291,0.441,0.291,0.723l0.002,6.002c0,0.281-0.097,0.519-0.291,0.713
			s-0.431,0.292-0.711,0.292h-13.996c-0.279,0-0.517-0.098-0.711-0.292c-0.193-0.194-0.291-0.432-0.291-0.713v-6.002
			c0-0.282,0.098-0.522,0.291-0.723c0.194-0.199,0.432-0.3,0.711-0.3h3.997c0.227,0,0.429,0.065,0.606,0.195
			c0.178,0.129,0.298,0.303,0.363,0.519c0.184,0.552,0.013,1.285,0.471,1.625c0.459,0.341,0.978,0.512,1.56,0.512
			s1.103-0.171,1.567-0.512c0.463-0.341,0.784-1.013,0.966-1.565c0.066-0.216,0.187-0.389,0.364-0.519
			c0.178-0.129,0.375-0.195,0.59-0.195L506.496,477.637L506.496,477.637z"/>
	</g>
</g>
<g id="Page-1_37_">
	<g id="Icons_37_" transform="translate(-404.000000, -285.000000)">
		<path id="Orders_1_" fill="#3AA54C" d="M461.819,469.667c-0.7,0-1.27,0.53-1.27,1.19v13.62c0,0.66,0.56,1.19,1.26,1.19h10.48
			c0.7,0,1.26-0.53,1.26-1.18v-9.82h-4.14c-0.86,0-0.86-0.08-0.86-0.89v-4.11H461.819L461.819,469.667z M469.549,469.667v3.41
			c0,0.32,0,0.59,0.34,0.59h3.66L469.549,469.667L469.549,469.667z"/>
	</g>
</g>
<g id="Page-1_38_">
	<g id="Icons_38_" transform="translate(-375.000000, -285.000000)">
		<path id="Finance_1_" fill="#3AA54C" d="M464.833,471.667c-3.866,0-7,3.134-7,7s3.134,7,7,7s7-3.134,7-7h-7V471.667z
			 M465.833,469.667v8h8C473.833,473.667,470.833,469.667,465.833,469.667z"/>
	</g>
</g>
<g id="Page-1_39_">
	<g id="Icons_39_" transform="translate(-430.000000, -285.000000)">
		<path id="Settings_1_" fill="#3AA54C" d="M549.215,456.631l-0.077-0.027l-0.297-0.725l0.032-0.074
			c0.901-2.085,0.839-2.147,0.689-2.298l-1.201-1.196c-0.049-0.05-0.135-0.085-0.21-0.085c-0.067,0-0.271,0-2.046,0.82l-0.071,0.033
			l-0.732-0.301l-0.029-0.074c-0.834-2.109-0.92-2.109-1.127-2.109h-1.697c-0.207,0-0.301,0-1.074,2.112l-0.03,0.077l-0.728,0.303
			l-0.07-0.03c-1.2-0.516-1.901-0.778-2.084-0.778c-0.074,0-0.161,0.034-0.21,0.083l-1.202,1.2
			c-0.153,0.153-0.216,0.218,0.732,2.259l0.035,0.075l-0.298,0.724l-0.073,0.029c-2.114,0.834-2.114,0.915-2.114,1.132v1.697
			c0,0.218,0,0.308,2.118,1.083l0.076,0.027l0.298,0.722l-0.032,0.074c-0.901,2.085-0.844,2.142-0.69,2.297l1.199,1.198
			c0.05,0.049,0.137,0.085,0.211,0.085c0.068,0,0.272,0,2.047-0.82l0.071-0.034l0.732,0.302l0.029,0.075
			c0.835,2.108,0.92,2.108,1.128,2.108h1.697c0.213,0,0.301,0,1.076-2.113l0.029-0.078l0.729-0.301l0.069,0.029
			c1.2,0.518,1.9,0.78,2.082,0.78c0.074,0,0.161-0.033,0.211-0.084l1.204-1.202c0.152-0.154,0.215-0.217-0.734-2.257l-0.036-0.076
			l0.297-0.72l0.072-0.029c2.117-0.838,2.117-0.92,2.117-1.137v-1.696C551.333,457.493,551.333,457.403,549.215,456.631
			L549.215,456.631z M543.333,461.347c-1.516,0-2.749-1.235-2.749-2.752c0-1.516,1.233-2.749,2.749-2.749
			c1.515,0,2.748,1.233,2.748,2.749C546.081,460.112,544.848,461.347,543.333,461.347L543.333,461.347z"/>
	</g>
</g>
<g id="Page-1_40_">
	<g id="Icons_40_" transform="translate(-346.000000, -285.000000)">
		<path id="Customers_1_" fill="#3AA54C" d="M464.413,485.25c-0.06-0.66-0.04-1.11-0.04-1.7c0.31-0.16,0.86-1.15,0.95-1.98
			c0.24-0.02,0.62-0.24,0.73-1.14c0.06-0.48-0.17-0.75-0.32-0.83c0.39-1.14,1.21-4.65-1.51-5.01c-0.28-0.47-1-0.71-1.93-0.71
			c-3.73,0.07-4.18,2.7-3.36,5.72c-0.15,0.08-0.38,0.35-0.32,0.83c0.11,0.9,0.49,1.12,0.73,1.14c0.09,0.83,0.66,1.82,0.97,1.98
			c0,0.59,0.03,1.04-0.04,1.7c-0.73,1.9-5.71,0.96-5.94,4.63h16C470.103,486.21,465.153,487.15,464.413,485.25"/>
	</g>
</g>
<g id="Page-1_41_">
	<g id="Icons_41_" transform="translate(-423.000000, -251.000000)">
		<path id="Contact_1_" fill="#3AA54C" d="M543.245,374.267c1.04-1.04,1.68-1.94,3.97-0.1s0.53,3.06-0.48,4.07
			c-1.16,1.16-5.48,0.06-9.75-4.21c-4.28-4.28-5.38-8.6-4.22-9.76c1.01-1.01,2.23-2.77,4.07-0.48c1.84,2.29,0.94,2.93-0.1,3.97
			c-0.73,0.72,0.79,2.55,2.37,4.14C540.685,373.477,542.525,374.997,543.245,374.267z"/>
	</g>
</g>
<g id="Page-1_42_">
	<g id="Icons_42_" transform="translate(-455.000000, -243.000000)">
		<path id="Graph_1_" fill="#CFD0D0" d="M465,461.04h2v13h-2V461.04z M461,464.04h2v10h-2V464.04z M469,467.04h2v7h-2V467.04z
			 M473,458.08h2v15.96h-2V458.08z"/>
	</g>
</g>
<g id="Page-1_43_">
	<g id="Icons_43_" transform="translate(-494.000000, -244.000000)">
		<path id="Data_1_" fill="#CFD0D0" d="M523.52,464.06h15.96v2h-15.96V464.06z M523.52,460.06h15.96v2h-15.96V460.06z
			 M523.52,468.06h15.96v2h-15.96V468.06z M523.52,472.06h15.96v2h-15.96V472.06z"/>
	</g>
</g>
<g id="Page-1_44_">
	<g id="Icons_44_" transform="translate(-246.000000, -188.000000)">
		<path id="Export_XLS_1_" fill="#9F9F9F" d="M301,422.06h20v-20h-20V422.06z M303,404.06h16v16h-16V404.06z M318,418.06h-4.084
			l-2.788-3.941l-2.927,3.941h-4.1l5.089-6.401l-4.111-5.599h4.145l1.924,3.044l2.05-3.044h4.215l-4.307,5.599L318,418.06
			L318,418.06z"/>
	</g>
</g>
<g id="Page-1_45_">
	<g id="Icons_45_" transform="translate(-220.000000, -188.000000)">
		<path id="Export_PDF_1_" fill="#FF0000" d="M304.335,422.06h20v-20h-20V422.06z M306.335,404.06h16v16h-16V404.06z
			 M308.502,418.732c-0.298,0-0.514-0.123-0.644-0.368c-0.119-0.223-0.144-0.521-0.071-0.843c0.083-0.368,0.288-0.703,0.644-1.052
			c0.444-0.432,1.097-0.868,1.839-1.227c0.371-0.181,0.812-0.366,1.289-0.543c0.55-0.859,1.336-2.207,1.901-3.692
			c0.064-0.169,0.125-0.338,0.183-0.508c-0.176-0.405-0.285-0.752-0.369-1.051c-0.153-0.545-0.251-1.033-0.291-1.451
			c-0.04-0.411-0.032-0.818,0.022-1.211c0.052-0.392,0.14-0.669,0.277-0.872c0.174-0.253,0.405-0.376,0.568-0.437
			c0.127-0.046,0.22-0.058,0.282-0.065c0.12-0.021,0.261-0.045,0.445,0.01c0.114,0.034,0.225,0.095,0.346,0.167l0.003-0.006
			c0.552,0.259,0.5,0.717,0.428,1.351l-0.03,0.264c-0.078,0.75-0.308,1.97-0.711,3.244c0.031,0.063,0.063,0.127,0.099,0.193
			c0.302,0.568,0.739,1.221,1.266,1.889c0.244,0.31,0.526,0.645,0.821,0.974c0.47-0.031,0.934-0.028,1.385,0.007
			c0.472,0.039,0.946,0.116,1.372,0.22c0.484,0.118,0.835,0.255,1.135,0.445c0.38,0.238,0.674,0.558,0.826,0.898
			c0.174,0.385,0.181,0.823,0.018,1.171c-0.145,0.307-0.426,0.537-0.811,0.663c-0.36,0.113-0.713,0.114-1.087,0.005
			c-0.351-0.106-0.745-0.317-1.208-0.643c-0.452-0.32-0.88-0.688-1.388-1.193c-0.2-0.201-0.406-0.413-0.609-0.632
			c-0.33,0.038-0.696,0.094-1.16,0.179c-0.53,0.097-1.185,0.228-2.02,0.471c-0.374,0.11-0.746,0.231-1.101,0.356
			c-0.047,0.072-0.091,0.139-0.133,0.201c-0.711,1.051-1.404,1.878-2.004,2.388c-0.458,0.388-0.881,0.61-1.294,0.679
			C308.643,418.726,308.57,418.732,308.502,418.732L308.502,418.732z M310.575,416.099c-0.83,0.414-1.302,0.813-1.513,1.018
			c-0.292,0.286-0.363,0.473-0.393,0.605c-0.006,0.03-0.011,0.056-0.014,0.081c0.227-0.06,0.482-0.21,0.774-0.458
			C309.691,417.121,310.078,416.738,310.575,416.099L310.575,416.099z M317.633,414.383c0.016,0.015,0.031,0.032,0.047,0.046
			c0.47,0.469,0.862,0.807,1.272,1.096c0.37,0.262,0.697,0.44,0.943,0.514c0.196,0.057,0.372,0.058,0.552,0.002
			c0.094-0.031,0.224-0.091,0.269-0.188c0.039-0.085,0.05-0.251-0.025-0.414c-0.079-0.179-0.254-0.36-0.481-0.503
			c-0.216-0.136-0.483-0.238-0.87-0.332c-0.381-0.094-0.805-0.162-1.23-0.197C317.954,414.394,317.794,414.386,317.633,414.383
			L317.633,414.383z M314.209,411.577c-0.398,0.996-0.88,1.92-1.319,2.676c0.036-0.01,0.072-0.021,0.109-0.032
			c0.875-0.255,1.558-0.391,2.112-0.492c0.218-0.041,0.416-0.074,0.6-0.103c-0.156-0.184-0.305-0.366-0.444-0.543
			C314.86,412.566,314.5,412.055,314.209,411.577L314.209,411.577z M314.312,406.287c-0.005,0-0.064,0.022-0.071,0.023
			c-0.037,0.004-0.051,0.006-0.08,0.017c-0.032,0.011-0.093,0.04-0.131,0.094c-0.028,0.042-0.086,0.168-0.129,0.487
			c-0.044,0.32-0.05,0.667-0.018,1.003c0.03,0.308,0.097,0.666,0.2,1.066c0.181-0.745,0.293-1.407,0.341-1.874l0.031-0.271
			c0.018-0.168,0.039-0.341,0.042-0.443C314.437,406.352,314.349,406.299,314.312,406.287L314.312,406.287z"/>
	</g>
</g>
<g id="Page-1_46_">
	<g id="Icons_46_" transform="translate(-130.000000, -186.000000)">
		<path id="Print_1_" fill="#337FB4" d="M140.999,428.354h10v3h1v-2.7c0-0.69-0.55-1.3-1.14-1.3h-9.63c-0.75,0-1.23,0.56-1.23,1.25
			v2.75h1V428.354L140.999,428.354z M141.999,445.354h8v-1h-8V445.354z M141.999,443.354h6v-1h-6V443.354z M141.999,441.354h8v-1h-8
			V441.354z M141.999,439.354h4v-1h-4V439.354z M152.999,435.839c-0.69,0-1.25-0.56-1.25-1.25s0.56-1.25,1.25-1.25
			s1.25,0.56,1.25,1.25S153.689,435.839,152.999,435.839L152.999,435.839z M140.999,437.354h10v9h-10V437.354z M154.749,432.354
			h-17.5c-0.69,0-1.25,0.31-1.25,1v5.75c0,0.69,0.56,1.25,1.25,1.25h2.75v5.6c0,0.69,0.23,1.4,0.92,1.4h10.16
			c0.69,0,0.92-0.56,0.92-1.25v-5.75h2.83c0.69,0,1.17-0.56,1.17-1.25v-5.5C155.999,432.914,155.439,432.354,154.749,432.354
			L154.749,432.354z"/>
	</g>
</g>
<g id="Page-1_47_">
	<g id="Icons_47_" transform="translate(-126.000000, -104.000000)">
		<path id="Export_Email_1_" fill="#3F9A46" d="M181.824,348.999l-8.364,6.826c-0.445,0.367-1.176,0.367-1.621,0l-8.364-6.826
			c-0.285-0.232-0.794-0.031-0.794,0.391v11.912c0,0.578,0.47,1.052,1.042,1.052h17.888c0.573,0,1.042-0.474,1.042-1.052V349.39
			C182.652,348.918,182.161,348.727,181.824,348.999z M164.779,349.014l7.064,5.762c0.445,0.361,1.176,0.361,1.621,0l7.061-5.762
			c0.445-0.361,0.342-0.66-0.23-0.66H165.01C164.43,348.357,164.333,348.654,164.779,349.014z"/>
	</g>
</g>
<g id="Icons_48_" transform="translate(-380.000000, -238.000000)">
	<g id="XMLID_1_">
		<g>
			<path fill="#979797" d="M429.5,345.667v1h-2v11.51c0,0.27-0.23,0.49-0.5,0.49h-0.5h-8H418c-0.28,0-0.5-0.23-0.5-0.49v-11.51h-2
				v-1h4v-2.51c0-0.27,0.22-0.49,0.5-0.49h0.5v1v2h4v-2v-1h0.5c0.28,0,0.5,0.22,0.5,0.49v2.51H429.5z M426.5,357.667v-11h-8v11
				H426.5z"/>
			<path fill="#FFFFFF" d="M426.5,346.667v11h-8v-11H426.5z M424.5,355.667v-7h-1v7H424.5z M421.5,355.667v-7h-1v7H421.5z"/>
			<rect x="423.5" y="348.667" fill="#939292" width="1" height="7"/>
			<rect x="420.5" y="342.667" fill="#979797" width="4" height="1"/>
			<rect x="420.5" y="348.667" fill="#939292" width="1" height="7"/>
		</g>
		<g>
		</g>
	</g>
</g>
</svg>
