<?xml version="1.0" encoding="utf-8"?>
<!-- Generator: Adobe Illustrator 17.0.1, SVG Export Plug-In . SVG Version: 6.00 Build 0)  -->
<!DOCTYPE svg PUBLIC "-//W3C//DTD SVG 1.1//EN" "http://www.w3.org/Graphics/SVG/1.1/DTD/svg11.dtd">
<svg version="1.1" id="Layer_1" xmlns="http://www.w3.org/2000/svg" xmlns:xlink="http://www.w3.org/1999/xlink" x="0px" y="0px"
	 width="97.333px" height="33.667px" viewBox="0 0 97.333 33.667" enable-background="new 0 0 97.333 33.667" xml:space="preserve">
<g id="Shape">
	<path fill="#3C5A99" d="M29,26.5c0,0.828-0.672,1.5-1.5,1.5h-21C5.672,28,5,27.328,5,26.5v-21C5,4.672,5.672,4,6.5,4h21
		C28.328,4,29,4.672,29,5.5V26.5L29,26.5z"/>
	<path id="f" fill="#FFFFFF" d="M21.5,28v-9h3l0.75-3.75H21.5v-1.5c0-1.5,0.751-2.25,2.25-2.25h1.5V7.75h-3
		c-2.756,0-4.5,2.161-4.5,5.25v2.25h-3V19h3v9H21.5L21.5,28z"/>
</g>
<g id="Page-1">
	<g id="Icons" transform="translate(-411.000000, -350.000000)">
		<g id="Twitter" transform="translate(411.000000, 350.000000)">
			<rect id="Rectangle-1" x="39.545" y="7.75" fill="#FFFFFF" width="18" height="17.25">
			</rect>
			<g id="Shape_1_">
				<path fill="#5FA9DD" d="M60.545,26.5c0,0.828-0.672,1.5-1.5,1.5h-21c-0.828,0-1.5-0.672-1.5-1.5v-21c0-0.828,0.672-1.5,1.5-1.5
					h21c0.828,0,1.5,0.672,1.5,1.5V26.5L60.545,26.5z"/>
				<path fill="#FFFFFF" d="M56.036,11.42c-0.552,0.242-1.144,0.403-1.768,0.476c0.638-0.373,1.125-0.967,1.354-1.673
					c-0.594,0.346-1.252,0.598-1.954,0.734C53.108,10.368,52.308,10,51.424,10c-1.7,0-3.075,1.355-3.075,3.028
					c0,0.236,0.027,0.469,0.078,0.692c-2.555-0.129-4.822-1.334-6.339-3.166c-0.264,0.448-0.417,0.967-0.417,1.524
					c0,1.049,0.544,1.976,1.368,2.52c-0.503-0.017-0.978-0.152-1.392-0.38c-0.001,0.013-0.001,0.026-0.001,0.039
					c0,1.466,1.061,2.692,2.467,2.97c-0.257,0.068-0.529,0.107-0.811,0.107c-0.198,0-0.39-0.018-0.577-0.054
					c0.39,1.203,1.526,2.078,2.871,2.104c-1.049,0.812-2.376,1.296-3.817,1.296c-0.247,0-0.493-0.014-0.734-0.042
					c1.361,0.859,2.978,1.36,4.715,1.36c5.656,0,8.75-4.615,8.75-8.618c0-0.13-0.004-0.263-0.009-0.391
					C55.101,12.561,55.624,12.027,56.036,11.42L56.036,11.42L56.036,11.42z"/>
			</g>
		</g>
	</g>
</g>
<g id="Page-1_1_">
	<g id="Icons_1_" transform="translate(-343.000000, -350.000000)">
		<g id="Youtube" transform="translate(343.000000, 350.000000)">
			<rect id="Background" x="71.25" y="7.931" fill="#FFFFFF" width="20.203" height="16.374">
			</rect>
			<g id="Shape_2_">
				<rect id="rect2987" x="69" y="4.375" fill="#CE2927" width="24" height="24"/>
				<path id="path9-3" fill="#FFFFFF" d="M90.278,13.856c-0.111-1.323-0.198-1.752-0.472-2.303c-0.362-0.73-0.885-1.115-1.63-1.2
					c-0.576-0.066-2.743-0.158-4.749-0.202c-3.472-0.077-9.181,0.071-9.91,0.257c-0.337,0.086-0.59,0.232-0.853,0.493
					c-0.461,0.458-0.735,1.114-0.845,2.022c-0.252,2.073-0.258,4.578-0.015,6.726c0.104,0.924,0.319,1.524,0.723,2.019
					c0.252,0.309,0.686,0.571,1.075,0.649c0.273,0.055,1.637,0.131,3.624,0.202c0.296,0.011,1.079,0.029,1.741,0.041
					c1.379,0.025,3.916,0.01,5.366-0.031c0.975-0.027,2.754-0.099,3.086-0.125c0.094-0.007,0.31-0.021,0.481-0.031
					c0.576-0.032,0.942-0.153,1.286-0.422c0.445-0.349,0.79-0.994,0.935-1.75c0.138-0.716,0.23-1.99,0.249-3.437
					C90.386,15.556,90.365,14.904,90.278,13.856L90.278,13.856L90.278,13.856z M78.574,19.04v-5.377l4.852,2.688L78.574,19.04
					L78.574,19.04z"/>
			</g>
		</g>
	</g>
</g>
</svg>
