<?xml version="1.0" encoding="utf-8"?>
<!-- Generator: Adobe Illustrator 17.0.1, SVG Export Plug-In . SVG Version: 6.00 Build 0)  -->
<!DOCTYPE svg PUBLIC "-//W3C//DTD SVG 1.1//EN" "http://www.w3.org/Graphics/SVG/1.1/DTD/svg11.dtd">
<svg version="1.1" id="Layer_1" xmlns="http://www.w3.org/2000/svg" xmlns:xlink="http://www.w3.org/1999/xlink" x="0px" y="0px"
	 width="11.5px" height="15.313px" viewBox="0 0 11.5 15.313" enable-background="new 0 0 11.5 15.313" xml:space="preserve">
<g id="Page-1_27_">
	<g id="Icons_27_" transform="translate(-600.000000, -155.000000)">
		<path id="Down" fill="#939292" d="M600.454,164.123c-0.137,0.123-0.204,0.269-0.204,0.438
			c0,0.169,0.068,0.315,0.204,0.439l4.812,4.753c0.136,0.123,0.297,0.185,0.483,0.185c0.187,0,0.347-0.062,0.484-0.185l4.813-4.753
			c0.136-0.123,0.203-0.27,0.203-0.439c0-0.169-0.068-0.315-0.203-0.438c-0.137-0.123-0.297-0.185-0.484-0.185h-9.625
			C600.751,163.938,600.591,163.999,600.454,164.123"/>
	</g>
</g>
<g id="Page-1_28_">
	<g id="Icons_28_" transform="translate(-600.000000, -146.000000)">
		<path id="Up" fill="#FFFFFF" d="M600.938,152.343h9.625c0.187,0,0.347-0.062,0.484-0.185
			c0.136-0.123,0.203-0.269,0.203-0.438s-0.068-0.315-0.203-0.439l-4.813-4.753c-0.137-0.123-0.297-0.185-0.484-0.185
			c-0.186,0-0.347,0.062-0.483,0.185l-4.812,4.753c-0.137,0.123-0.204,0.27-0.204,0.439s0.068,0.314,0.204,0.438
			S600.751,152.343,600.938,152.343"/>
	</g>
</g>
</svg>
