<?xml version="1.0" encoding="utf-8"?>
<!-- Generator: Adobe Illustrator 17.0.1, SVG Export Plug-In . SVG Version: 6.00 Build 0)  -->
<!DOCTYPE svg PUBLIC "-//W3C//DTD SVG 1.1//EN" "http://www.w3.org/Graphics/SVG/1.1/DTD/svg11.dtd">
<svg version="1.1" id="Layer_1" xmlns:sketch="http://www.bohemiancoding.com/sketch/ns"
	 xmlns="http://www.w3.org/2000/svg" xmlns:xlink="http://www.w3.org/1999/xlink" x="0px" y="0px" width="240px" height="67px"
	 viewBox="0 0 240 67" enable-background="new 0 0 240 67" xml:space="preserve">
<title>Logo_Login</title>
<desc>Created with Sketch.</desc>
<g id="Page-1">
	<g id="Icons" transform="translate(-303.000000, -580.000000)">
		<g id="Logo_Login" transform="translate(303.000000, 580.000000)" sketch:type="MSLayerGroup">
			<path id="Fill-1" sketch:type="MSShapeGroup" fill="#0D385B" d="M142.611,47.187h-10.705c-3.142,0-5.653-0.351-7.547-1.069
				c-2.4-0.925-4.121-2.52-5.163-4.738c-0.411-0.877-0.663-1.707-0.821-2.489c-0.158-0.782-0.237-1.707-0.237-2.728V17.053h7.626
				v18.856c0,0.861,0.095,1.611,0.3,2.265c0.189,0.638,0.537,1.276,1.042,1.914c0.711,0.909,1.532,1.5,2.463,1.803
				c0.947,0.287,2.132,0.415,3.568,0.415h9.474V47.187L142.611,47.187z M146.258,17.053h7.926v30.134h-7.926V17.053z
				 M189.268,47.187h-9.411l-14.305-22.301v22.301h-7.089V17.053H168l14.068,22.589V17.053h7.2V47.187L189.268,47.187z
				 M225.789,47.267h-8.653l-7.579-10.082l-7.026,10.082h-8.858l11.558-15.027l-11.305-15.187h8.905l6.774,10.018l7.247-10.018
				h8.637L214.105,32.16L225.789,47.267L225.789,47.267z"/>
			<path id="Fill-2" sketch:type="MSShapeGroup" fill="#0D385B" d="M2.826,61.768c4.121,6.796,63.332,9.189,59.321-7.609
				c-0.063-0.271-4.595,5.567-14.021,6.062c-12.379,0.814-29.921-2.712-32.195-8.598C10.5,37.552,37.595,10.13,25.011,21.201
				C12.426,32.256-1.326,54.972,2.826,61.768"/>
			<path id="Fill-3" sketch:type="MSShapeGroup" fill="#0D385B" d="M30.411,0.798C21.932,0.59-10.279,56.743,3.916,62.182
				c0.237,0.096-1.768-7.833,3.111-17.133c6.3-12.315,17.842-26.88,23.337-26.082C45,21.089,52.8,53.313,49.2,35.941
				C45.584,18.585,38.905,1.005,30.411,0.798"/>
			<path id="Fill-4" sketch:type="MSShapeGroup" fill="#0D385B" d="M61.563,52.898C66.347,45.815,39,3.813,42.663,11.629
				c5.289,10.959,10.2,29.4,7.2,34.633c-7.153,12.491-35.368,5.663-23.068,10.273C39.111,61.161,56.795,59.997,61.563,52.898"/>
			<path id="Fill-5" sketch:type="MSShapeGroup" fill="#0D385B" d="M93.489,24.264h-6.758c0.347-2.265,1.326-4.068,2.937-5.44
				c2.242-1.914,5.068-2.871,8.463-2.871c3.016,0,5.558,0.798,7.611,2.377c2.053,1.595,3.063,3.478,3.063,5.663
				c0,1.34-0.442,2.584-1.326,3.685c-0.884,1.133-2.179,2.026-3.868,2.728c2.242,0.542,3.963,1.5,5.226,2.871
				c1.263,1.372,1.895,2.967,1.895,4.834c0,2.728-1.216,5.025-3.663,6.907s-5.558,2.84-9.347,2.84c-3.568,0-6.474-0.909-8.747-2.68
				c-2.258-1.787-3.489-4.243-3.711-7.306h6.947c0.316,1.579,0.979,2.744,2.005,3.51c1.042,0.782,2.337,1.149,3.916,1.149
				c1.626,0,3-0.415,4.089-1.292c1.074-0.861,1.626-1.914,1.626-3.159c0-1.372-0.742-2.536-2.195-3.478
				c-1.453-0.957-3.553-1.436-6.3-1.468V28.22c1.689-0.128,2.953-0.335,3.789-0.654c0.837-0.335,1.484-0.782,1.942-1.34
				c0.474-0.59,0.711-1.18,0.711-1.819c0-0.814-0.363-1.515-1.058-2.058c-0.711-0.558-1.642-0.814-2.795-0.814
				c-1.011,0-1.926,0.239-2.747,0.75C94.358,22.796,93.805,23.45,93.489,24.264"/>
			<path id="Fill-6" sketch:type="MSShapeGroup" fill="#0D385B" d="M88.421,51.877h1.405v6.955c0,0.622,0.189,1.133,0.6,1.531
				c0.395,0.399,0.932,0.606,1.579,0.606c0.695,0,1.232-0.191,1.626-0.59c0.395-0.383,0.6-0.909,0.6-1.579v-6.923h1.421v7.067
				c0,1.037-0.332,1.835-0.979,2.409c-0.663,0.574-1.547,0.861-2.653,0.861c-1.153,0-2.053-0.271-2.668-0.845
				c-0.616-0.558-0.932-1.372-0.932-2.425V51.877"/>
			<path id="Fill-7" sketch:type="MSShapeGroup" fill="#0D385B" d="M103.626,62.039v-4.307c0-0.798-0.111-1.356-0.363-1.675
				c-0.237-0.303-0.647-0.463-1.216-0.463c-0.3,0-0.616,0.096-0.947,0.271s-0.584,0.399-0.774,0.654v5.52H99v-7.434h0.916
				l0.411,0.973c0.442-0.734,1.168-1.101,2.147-1.101c1.658,0,2.479,0.989,2.479,2.967v4.594H103.626"/>
			<path id="Fill-8" sketch:type="MSShapeGroup" fill="#0D385B" d="M108.853,62.039v-6.301h-1.026v-1.133h2.368v7.434H108.853
				L108.853,62.039z M109.595,51.797c0.205,0,0.411,0.08,0.568,0.255c0.158,0.16,0.237,0.351,0.237,0.558
				c0,0.239-0.079,0.431-0.237,0.59c-0.158,0.175-0.363,0.239-0.568,0.239c-0.237,0-0.426-0.064-0.584-0.239
				c-0.174-0.16-0.253-0.351-0.253-0.59c0-0.223,0.079-0.399,0.253-0.558C109.153,51.877,109.358,51.797,109.595,51.797
				L109.595,51.797z"/>
			<path id="Fill-9" sketch:type="MSShapeGroup" fill="#0D385B" d="M117.726,52.755c-0.284-0.08-0.521-0.144-0.758-0.144
				c-0.426,0-0.758,0.16-0.995,0.463c-0.268,0.303-0.411,0.686-0.411,1.165c0,0.112,0,0.239,0.032,0.367h1.532v1.133h-1.532v6.301
				h-1.326v-6.301h-1.105v-1.133h1.105c0-0.941,0.237-1.675,0.695-2.217c0.489-0.542,1.105-0.814,1.879-0.814
				c0.395,0,0.805,0.064,1.263,0.207L117.726,52.755"/>
			<path id="Fill-10" sketch:type="MSShapeGroup" fill="#0D385B" d="M120.979,62.039v-6.301h-1.026v-1.133h2.353v7.434H120.979
				L120.979,62.039z M121.689,51.797c0.237,0,0.442,0.08,0.6,0.255c0.158,0.16,0.237,0.351,0.237,0.558
				c0,0.239-0.079,0.431-0.237,0.59c-0.158,0.175-0.363,0.239-0.6,0.239c-0.205,0-0.411-0.064-0.553-0.239
				c-0.174-0.16-0.253-0.351-0.253-0.59c0-0.223,0.079-0.399,0.221-0.558C121.279,51.877,121.484,51.797,121.689,51.797
				L121.689,51.797z"/>
			<path id="Fill-11" sketch:type="MSShapeGroup" fill="#0D385B" d="M132.126,58.465h-5.432c0,0.861,0.237,1.531,0.711,2.01
				c0.442,0.383,0.979,0.59,1.658,0.59c0.758,0,1.389-0.207,1.911-0.654l0.553,0.957c-0.205,0.191-0.521,0.367-0.932,0.526
				c-0.537,0.191-1.137,0.287-1.784,0.287c-0.947,0-1.753-0.335-2.416-0.941c-0.742-0.702-1.105-1.643-1.105-2.824
				c0-1.228,0.363-2.201,1.137-2.951c0.663-0.654,1.468-0.989,2.384-0.989c1.074,0,1.911,0.287,2.526,0.893
				c0.584,0.574,0.884,1.324,0.884,2.281C132.221,57.939,132.189,58.21,132.126,58.465L132.126,58.465z M128.874,55.594
				c-0.6,0-1.105,0.191-1.5,0.558c-0.379,0.367-0.6,0.814-0.647,1.34h4.168c0-0.51-0.174-0.973-0.505-1.324
				C130.011,55.785,129.505,55.594,128.874,55.594L128.874,55.594z"/>
			<path id="Fill-12" sketch:type="MSShapeGroup" fill="#0D385B" d="M139.753,62.039V61.48c-0.474,0.463-1.153,0.702-2.037,0.702
				c-0.932,0-1.705-0.351-2.274-1.005c-0.584-0.67-0.884-1.563-0.884-2.664c0-1.117,0.332-2.058,1.011-2.855
				c0.663-0.782,1.484-1.18,2.4-1.18c0.774,0,1.374,0.175,1.784,0.542v-3.446h1.326v10.465H139.753L139.753,62.039z M139.753,56.344
				c-0.347-0.51-0.805-0.75-1.389-0.75c-0.711,0-1.295,0.255-1.753,0.782c-0.426,0.542-0.663,1.196-0.663,2.026
				c0,1.771,0.837,2.664,2.479,2.664c0.205,0,0.474-0.064,0.758-0.191c0.3-0.128,0.474-0.271,0.568-0.415V56.344L139.753,56.344z"/>
			<path id="Fill-13" sketch:type="MSShapeGroup" fill="#0D385B" d="M156.695,52.26l-0.474,1.196
				c-0.458-0.335-1.153-0.495-2.116-0.495c-0.9,0-1.642,0.383-2.179,1.149c-0.537,0.766-0.821,1.755-0.821,2.967
				c0,1.149,0.284,2.09,0.853,2.824c0.553,0.718,1.279,1.069,2.163,1.069c0.963,0,1.705-0.335,2.211-1.005l0.789,1.037
				c-0.821,0.814-1.863,1.212-3.158,1.212c-1.342,0-2.384-0.479-3.174-1.436c-0.774-0.957-1.153-2.217-1.153-3.781
				c0-1.531,0.411-2.776,1.232-3.781c0.821-1.005,1.879-1.5,3.205-1.5C155.179,51.718,156.063,51.893,156.695,52.26"/>
			<path id="Fill-14" sketch:type="MSShapeGroup" fill="#0D385B" d="M159.489,58.306c0-1.133,0.316-2.058,0.947-2.76
				c0.616-0.702,1.421-1.069,2.463-1.069c1.058,0,1.911,0.351,2.495,1.005c0.6,0.686,0.9,1.627,0.9,2.824
				c0,1.196-0.3,2.154-0.916,2.824c-0.616,0.702-1.437,1.053-2.479,1.053c-1.089,0-1.926-0.367-2.526-1.053
				C159.789,60.444,159.489,59.486,159.489,58.306L159.489,58.306z M160.879,58.306c0,1.866,0.679,2.792,2.021,2.792
				c0.616,0,1.089-0.239,1.468-0.75c0.347-0.479,0.505-1.165,0.505-2.042c0-1.835-0.663-2.744-1.974-2.744
				c-0.616,0-1.105,0.239-1.468,0.734C161.068,56.775,160.879,57.445,160.879,58.306L160.879,58.306z"/>
			<path id="Fill-15" sketch:type="MSShapeGroup" fill="#0D385B" d="M177.758,62.039v-4.706c0-1.165-0.521-1.739-1.532-1.739
				c-0.347,0-0.632,0.096-0.916,0.287c-0.268,0.191-0.474,0.431-0.568,0.67v5.488H173.4v-5.28c0-0.351-0.142-0.654-0.411-0.861
				c-0.284-0.207-0.647-0.303-1.121-0.303c-0.268,0-0.553,0.096-0.853,0.303c-0.284,0.191-0.505,0.431-0.647,0.67v5.472h-1.326
				v-7.434h0.884l0.426,0.861c0.521-0.654,1.168-0.989,1.942-0.989c1.074,0,1.832,0.335,2.258,0.989
				c0.158-0.271,0.426-0.51,0.837-0.718c0.411-0.175,0.837-0.271,1.263-0.271c0.774,0,1.358,0.223,1.8,0.686
				c0.411,0.463,0.632,1.101,0.632,1.914v4.961H177.758"/>
			<path id="Fill-16" sketch:type="MSShapeGroup" fill="#0D385B" d="M191.037,62.039v-4.706c0-1.165-0.505-1.739-1.532-1.739
				c-0.332,0-0.632,0.096-0.916,0.287c-0.268,0.191-0.458,0.431-0.568,0.67v5.488h-1.326v-5.28c0-0.351-0.142-0.654-0.411-0.861
				c-0.284-0.207-0.663-0.303-1.121-0.303c-0.268,0-0.553,0.096-0.853,0.303c-0.3,0.191-0.521,0.431-0.632,0.67v5.472h-1.342v-7.434
				h0.884l0.426,0.861c0.521-0.654,1.168-0.989,1.926-0.989c1.089,0,1.832,0.335,2.274,0.989c0.142-0.271,0.426-0.51,0.837-0.718
				c0.411-0.175,0.821-0.271,1.263-0.271c0.758,0,1.358,0.223,1.8,0.686c0.426,0.463,0.632,1.101,0.632,1.914v4.961H191.037"/>
			<path id="Fill-17" sketch:type="MSShapeGroup" fill="#0D385B" d="M201.963,58.465h-5.432c0,0.861,0.253,1.531,0.742,2.01
				c0.411,0.383,0.963,0.59,1.626,0.59c0.774,0,1.405-0.207,1.911-0.654l0.568,0.957c-0.205,0.191-0.521,0.367-0.947,0.526
				c-0.537,0.191-1.137,0.287-1.784,0.287c-0.947,0-1.737-0.335-2.416-0.941c-0.726-0.702-1.089-1.643-1.089-2.824
				c0-1.228,0.363-2.201,1.121-2.951c0.679-0.654,1.468-0.989,2.384-0.989c1.089,0,1.926,0.287,2.542,0.893
				c0.584,0.574,0.884,1.324,0.884,2.281C202.074,57.939,202.026,58.21,201.963,58.465L201.963,58.465z M198.711,55.594
				c-0.568,0-1.074,0.191-1.484,0.558c-0.395,0.367-0.6,0.814-0.663,1.34h4.168c0-0.51-0.158-0.973-0.505-1.324
				C199.863,55.785,199.358,55.594,198.711,55.594L198.711,55.594z"/>
			<path id="Fill-18" sketch:type="MSShapeGroup" fill="#0D385B" d="M208.911,55.881c-0.284-0.191-0.584-0.287-0.884-0.287
				c-0.458,0-0.884,0.207-1.232,0.654c-0.347,0.415-0.537,0.925-0.537,1.547v4.243h-1.326v-7.434h1.326v1.196
				c0.489-0.877,1.216-1.324,2.163-1.324c0.253,0,0.584,0.048,1.042,0.128L208.911,55.881"/>
			<path id="Fill-19" sketch:type="MSShapeGroup" fill="#0D385B" d="M217.437,55.211l-0.663,0.925
				c-0.142-0.128-0.363-0.255-0.726-0.367c-0.347-0.112-0.679-0.175-1.011-0.175c-0.711,0-1.295,0.239-1.721,0.75
				c-0.426,0.495-0.647,1.18-0.647,2.058c0,0.877,0.221,1.531,0.647,1.978c0.458,0.463,1.058,0.686,1.816,0.686
				c0.6,0,1.2-0.223,1.816-0.686l0.537,1.117c-0.711,0.463-1.611,0.686-2.668,0.686c-1.026,0-1.879-0.351-2.542-1.021
				c-0.663-0.67-0.995-1.611-0.995-2.76c0-1.18,0.347-2.122,1.026-2.84c0.695-0.718,1.658-1.085,2.874-1.085
				c0.379,0,0.789,0.08,1.263,0.239C216.884,54.892,217.216,55.052,217.437,55.211"/>
			<path id="Fill-20" sketch:type="MSShapeGroup" fill="#0D385B" d="M226.563,58.465h-5.416c0,0.861,0.237,1.531,0.726,2.01
				c0.426,0.383,0.979,0.59,1.642,0.59c0.774,0,1.405-0.207,1.911-0.654l0.553,0.957c-0.205,0.191-0.521,0.367-0.947,0.526
				c-0.521,0.191-1.121,0.287-1.784,0.287c-0.932,0-1.753-0.335-2.4-0.941c-0.726-0.702-1.089-1.643-1.089-2.824
				c0-1.228,0.363-2.201,1.121-2.951c0.679-0.654,1.468-0.989,2.384-0.989c1.089,0,1.911,0.287,2.542,0.893
				c0.568,0.574,0.868,1.324,0.868,2.281C226.674,57.939,226.642,58.21,226.563,58.465L226.563,58.465z M223.326,55.594
				c-0.6,0-1.074,0.191-1.5,0.558c-0.379,0.367-0.6,0.814-0.647,1.34h4.168c0-0.51-0.174-0.973-0.505-1.324
				C224.479,55.785,223.958,55.594,223.326,55.594L223.326,55.594z"/>
			<path id="Fill-21" sketch:type="MSShapeGroup" fill="#0D385B" d="M229.532,55.371l0.3-0.766c0.158,0.112,0.363,0.223,0.6,0.287
				c0.221,0.08,0.426,0.112,0.632,0.112c0.316,0,0.584-0.08,0.774-0.271c0.205-0.175,0.3-0.383,0.3-0.67
				c0-0.207-0.047-0.399-0.158-0.558c-0.126-0.191-0.395-0.383-0.837-0.59l-0.505-0.223c-0.411-0.207-0.711-0.431-0.884-0.686
				c-0.158-0.271-0.253-0.59-0.253-0.973c0-0.447,0.174-0.83,0.489-1.117c0.332-0.319,0.758-0.463,1.263-0.463
				c0.679,0,1.153,0.112,1.421,0.319l-0.253,0.734c-0.095-0.08-0.284-0.16-0.521-0.239c-0.205-0.064-0.426-0.096-0.632-0.096
				c-0.284,0-0.505,0.064-0.679,0.223c-0.158,0.175-0.237,0.383-0.237,0.622c0,0.16,0.016,0.319,0.095,0.431
				c0.047,0.128,0.126,0.239,0.237,0.319c0.111,0.08,0.316,0.223,0.663,0.367l0.489,0.239c0.426,0.191,0.726,0.431,0.884,0.702
				c0.174,0.271,0.253,0.622,0.253,1.053c0,0.447-0.189,0.83-0.553,1.149c-0.363,0.335-0.868,0.479-1.5,0.479
				C230.368,55.754,229.911,55.642,229.532,55.371"/>
			<path id="Fill-22" sketch:type="MSShapeGroup" fill="#0D385B" d="M239.195,55.658l-0.726-3.924l-1.342,4.004h-0.205l-1.405-4.004
				l-0.711,3.924H234l1.168-6.094h0.379l1.468,4.435l1.358-4.435h0.379L240,55.658H239.195"/>
		</g>
	</g>
</g>
</svg>
