<?xml version="1.0" encoding="UTF-8" standalone="no"?>
<svg width="240px" height="67px" viewBox="0 0 240 67" version="1.1" xmlns="http://www.w3.org/2000/svg" xmlns:xlink="http://www.w3.org/1999/xlink" xmlns:sketch="http://www.bohemiancoding.com/sketch/ns">
    <!-- Generator: Sketch 3.2.2 (9983) - http://www.bohemiancoding.com/sketch -->
    <title>Logo_Login</title>
    <desc>Created with Sketch.</desc>
    <defs></defs>
    <g id="Page-1" stroke="none" stroke-width="1" fill="none" fill-rule="evenodd"  >
        <g id="Icons"   transform="translate(-303.000000, -580.000000)" fill="#FEFEFE">
            <g id="Logo_Login" sketch:type="MSLayerGroup" transform="translate(303.000000, 580.000000)">
                <path d="M142.610526,47.1871429 L131.905263,47.1871429 C128.763158,47.1871429 126.252632,46.8361905 124.357895,46.1183333 C121.957895,45.1930952 120.236842,43.5978571 119.194737,41.3804762 C118.784211,40.5030952 118.531579,39.6735714 118.373684,38.8919048 C118.215789,38.1102381 118.136842,37.185 118.136842,36.1640476 L118.136842,17.0530952 L125.763158,17.0530952 L125.763158,35.9088095 C125.763158,36.7702381 125.857895,37.52 126.063158,38.1740476 C126.252632,38.8121429 126.6,39.4502381 127.105263,40.0883333 C127.815789,40.997619 128.636842,41.5878571 129.568421,41.8909524 C130.515789,42.1780952 131.7,42.3057143 133.136842,42.3057143 L142.610526,42.3057143 L142.610526,47.1871429 L142.610526,47.1871429 Z M146.257895,17.0530952 L154.184211,17.0530952 L154.184211,47.1871429 L146.257895,47.1871429 L146.257895,17.0530952 Z M189.268421,47.1871429 L179.857895,47.1871429 L165.552632,24.8857143 L165.552632,47.1871429 L158.463158,47.1871429 L158.463158,17.0530952 L168,17.0530952 L182.068421,39.6416667 L182.068421,17.0530952 L189.268421,17.0530952 L189.268421,47.1871429 L189.268421,47.1871429 Z M225.789474,47.2669048 L217.136842,47.2669048 L209.557895,37.185 L202.531579,47.2669048 L193.673684,47.2669048 L205.231579,32.2397619 L193.926316,17.0530952 L202.831579,17.0530952 L209.605263,27.0711905 L216.852632,17.0530952 L225.489474,17.0530952 L214.105263,32.16 L225.789474,47.2669048 L225.789474,47.2669048 Z" id="Fill-1" sketch:type="MSShapeGroup"></path>
                <path d="M2.82631579,61.767619 C6.94736842,68.5633333 66.1578947,70.9561905 62.1473684,54.1583333 C62.0842105,53.8871429 57.5526316,59.7257143 48.1263158,60.2202381 C35.7473684,61.0338095 18.2052632,57.5083333 15.9315789,51.6219048 C10.5,37.5519048 37.5947368,10.1297619 25.0105263,21.2007143 C12.4263158,32.2557143 -1.32631579,54.9719048 2.82631579,61.767619" id="Fill-2" sketch:type="MSShapeGroup"></path>
                <path d="M30.4105263,0.797619048 C21.9315789,0.590238095 -10.2789474,56.742619 3.91578947,62.182381 C4.15263158,62.2780952 2.14736842,54.3497619 7.02631579,45.0495238 C13.3263158,32.7342857 24.8684211,18.1697619 30.3631579,18.967381 C45,21.0890476 52.8,53.3128571 49.2,35.9407143 C45.5842105,18.5845238 38.9052632,1.005 30.4105263,0.797619048" id="Fill-3" sketch:type="MSShapeGroup"></path>
                <path d="M61.5631579,52.8980952 C66.3473684,45.8152381 39,3.81261905 42.6631579,11.6292857 C47.9526316,22.5885714 52.8631579,41.0295238 49.8631579,46.2619048 C42.7105263,58.752619 14.4947368,51.925 26.7947368,56.5352381 C39.1105263,61.1614286 56.7947368,59.9969048 61.5631579,52.8980952" id="Fill-4" sketch:type="MSShapeGroup"></path>
                <path d="M93.4894737,24.2635714 L86.7315789,24.2635714 C87.0789474,21.9983333 88.0578947,20.1957143 89.6684211,18.8238095 C91.9105263,16.9095238 94.7368421,15.952381 98.1315789,15.952381 C101.147368,15.952381 103.689474,16.75 105.742105,18.3292857 C107.794737,19.9245238 108.805263,21.8069048 108.805263,23.992381 C108.805263,25.332381 108.363158,26.5766667 107.478947,27.677381 C106.594737,28.81 105.3,29.7033333 103.610526,30.4052381 C105.852632,30.947619 107.573684,31.9047619 108.836842,33.2766667 C110.1,34.6485714 110.731579,36.2438095 110.731579,38.1102381 C110.731579,40.8380952 109.515789,43.1352381 107.068421,45.017619 C104.621053,46.9 101.510526,47.8571429 97.7210526,47.8571429 C94.1526316,47.8571429 91.2473684,46.9478571 88.9736842,45.1771429 C86.7157895,43.3904762 85.4842105,40.9338095 85.2631579,37.8709524 L92.2105263,37.8709524 C92.5263158,39.4502381 93.1894737,40.6147619 94.2157895,41.3804762 C95.2578947,42.1621429 96.5526316,42.5290476 98.1315789,42.5290476 C99.7578947,42.5290476 101.131579,42.1142857 102.221053,41.2369048 C103.294737,40.3754762 103.847368,39.322619 103.847368,38.0783333 C103.847368,36.7064286 103.105263,35.5419048 101.652632,34.6007143 C100.2,33.6435714 98.1,33.165 95.3526316,33.1330952 L95.3526316,28.2197619 C97.0421053,28.0921429 98.3052632,27.8847619 99.1421053,27.5657143 C99.9789474,27.2307143 100.626316,26.7840476 101.084211,26.2257143 C101.557895,25.6354762 101.794737,25.0452381 101.794737,24.4071429 C101.794737,23.5935714 101.431579,22.8916667 100.736842,22.3492857 C100.026316,21.7909524 99.0947368,21.5357143 97.9421053,21.5357143 C96.9315789,21.5357143 96.0157895,21.775 95.1947368,22.2854762 C94.3578947,22.7959524 93.8052632,23.45 93.4894737,24.2635714" id="Fill-5" sketch:type="MSShapeGroup"></path>
                <path d="M88.4210526,51.8771429 L89.8263158,51.8771429 L89.8263158,58.832381 C89.8263158,59.4545238 90.0157895,59.965 90.4263158,60.3638095 C90.8210526,60.762619 91.3578947,60.97 92.0052632,60.97 C92.7,60.97 93.2368421,60.7785714 93.6315789,60.3797619 C94.0263158,59.9969048 94.2315789,59.4704762 94.2315789,58.8004762 L94.2315789,51.8771429 L95.6526316,51.8771429 L95.6526316,58.9440476 C95.6526316,59.9809524 95.3210526,60.7785714 94.6736842,61.3528571 C94.0105263,61.9271429 93.1263158,62.2142857 92.0210526,62.2142857 C90.8684211,62.2142857 89.9684211,61.9430952 89.3526316,61.3688095 C88.7368421,60.8104762 88.4210526,59.9969048 88.4210526,58.9440476 L88.4210526,51.8771429" id="Fill-6" sketch:type="MSShapeGroup"></path>
                <path d="M103.626316,62.0388095 L103.626316,57.7316667 C103.626316,56.9340476 103.515789,56.3757143 103.263158,56.0566667 C103.026316,55.7535714 102.615789,55.5940476 102.047368,55.5940476 C101.747368,55.5940476 101.431579,55.6897619 101.1,55.8652381 C100.768421,56.0407143 100.515789,56.2640476 100.326316,56.5192857 L100.326316,62.0388095 L99,62.0388095 L99,54.605 L99.9157895,54.605 L100.326316,55.5780952 C100.768421,54.8442857 101.494737,54.477381 102.473684,54.477381 C104.131579,54.477381 104.952632,55.4664286 104.952632,57.4445238 L104.952632,62.0388095 L103.626316,62.0388095" id="Fill-7" sketch:type="MSShapeGroup"></path>
                <path d="M108.852632,62.0388095 L108.852632,55.737619 L107.826316,55.737619 L107.826316,54.605 L110.194737,54.605 L110.194737,62.0388095 L108.852632,62.0388095 L108.852632,62.0388095 Z M109.594737,51.797381 C109.8,51.797381 110.005263,51.8771429 110.163158,52.052619 C110.321053,52.2121429 110.4,52.4035714 110.4,52.6109524 C110.4,52.8502381 110.321053,53.0416667 110.163158,53.2011905 C110.005263,53.3766667 109.8,53.4404762 109.594737,53.4404762 C109.357895,53.4404762 109.168421,53.3766667 109.010526,53.2011905 C108.836842,53.0416667 108.757895,52.8502381 108.757895,52.6109524 C108.757895,52.387619 108.836842,52.2121429 109.010526,52.052619 C109.152632,51.8771429 109.357895,51.797381 109.594737,51.797381 L109.594737,51.797381 Z" id="Fill-8" sketch:type="MSShapeGroup"></path>
                <path d="M117.726316,52.7545238 C117.442105,52.6747619 117.205263,52.6109524 116.968421,52.6109524 C116.542105,52.6109524 116.210526,52.7704762 115.973684,53.0735714 C115.705263,53.3766667 115.563158,53.7595238 115.563158,54.2380952 C115.563158,54.3497619 115.563158,54.477381 115.594737,54.605 L117.126316,54.605 L117.126316,55.737619 L115.594737,55.737619 L115.594737,62.0388095 L114.268421,62.0388095 L114.268421,55.737619 L113.163158,55.737619 L113.163158,54.605 L114.268421,54.605 C114.268421,53.6638095 114.505263,52.93 114.963158,52.387619 C115.452632,51.8452381 116.068421,51.5740476 116.842105,51.5740476 C117.236842,51.5740476 117.647368,51.6378571 118.105263,51.7814286 L117.726316,52.7545238" id="Fill-9" sketch:type="MSShapeGroup"></path>
                <path d="M120.978947,62.0388095 L120.978947,55.737619 L119.952632,55.737619 L119.952632,54.605 L122.305263,54.605 L122.305263,62.0388095 L120.978947,62.0388095 L120.978947,62.0388095 Z M121.689474,51.797381 C121.926316,51.797381 122.131579,51.8771429 122.289474,52.052619 C122.447368,52.2121429 122.526316,52.4035714 122.526316,52.6109524 C122.526316,52.8502381 122.447368,53.0416667 122.289474,53.2011905 C122.131579,53.3766667 121.926316,53.4404762 121.689474,53.4404762 C121.484211,53.4404762 121.278947,53.3766667 121.136842,53.2011905 C120.963158,53.0416667 120.884211,52.8502381 120.884211,52.6109524 C120.884211,52.387619 120.963158,52.2121429 121.105263,52.052619 C121.278947,51.8771429 121.484211,51.797381 121.689474,51.797381 L121.689474,51.797381 Z" id="Fill-10" sketch:type="MSShapeGroup"></path>
                <path d="M132.126316,58.4654762 L126.694737,58.4654762 C126.694737,59.3269048 126.931579,59.9969048 127.405263,60.4754762 C127.847368,60.8583333 128.384211,61.0657143 129.063158,61.0657143 C129.821053,61.0657143 130.452632,60.8583333 130.973684,60.4116667 L131.526316,61.3688095 C131.321053,61.5602381 131.005263,61.7357143 130.594737,61.8952381 C130.057895,62.0866667 129.457895,62.182381 128.810526,62.182381 C127.863158,62.182381 127.057895,61.847381 126.394737,61.2411905 C125.652632,60.5392857 125.289474,59.5980952 125.289474,58.417619 C125.289474,57.1892857 125.652632,56.2161905 126.426316,55.4664286 C127.089474,54.812381 127.894737,54.477381 128.810526,54.477381 C129.884211,54.477381 130.721053,54.7645238 131.336842,55.3707143 C131.921053,55.945 132.221053,56.6947619 132.221053,57.6519048 C132.221053,57.9390476 132.189474,58.2102381 132.126316,58.4654762 L132.126316,58.4654762 Z M128.873684,55.5940476 C128.273684,55.5940476 127.768421,55.7854762 127.373684,56.152381 C126.994737,56.5192857 126.773684,56.9659524 126.726316,57.492381 L130.894737,57.492381 C130.894737,56.9819048 130.721053,56.5192857 130.389474,56.1683333 C130.010526,55.7854762 129.505263,55.5940476 128.873684,55.5940476 L128.873684,55.5940476 Z" id="Fill-11" sketch:type="MSShapeGroup"></path>
                <path d="M139.752632,62.0388095 L139.752632,61.4804762 C139.278947,61.9430952 138.6,62.182381 137.715789,62.182381 C136.784211,62.182381 136.010526,61.8314286 135.442105,61.177381 C134.857895,60.507381 134.557895,59.6140476 134.557895,58.5133333 C134.557895,57.3966667 134.889474,56.4554762 135.568421,55.6578571 C136.231579,54.8761905 137.052632,54.477381 137.968421,54.477381 C138.742105,54.477381 139.342105,54.6528571 139.752632,55.0197619 L139.752632,51.5740476 L141.078947,51.5740476 L141.078947,62.0388095 L139.752632,62.0388095 L139.752632,62.0388095 Z M139.752632,56.3438095 C139.405263,55.8333333 138.947368,55.5940476 138.363158,55.5940476 C137.652632,55.5940476 137.068421,55.8492857 136.610526,56.3757143 C136.184211,56.9180952 135.947368,57.5721429 135.947368,58.4016667 C135.947368,60.172381 136.784211,61.0657143 138.426316,61.0657143 C138.631579,61.0657143 138.9,61.0019048 139.184211,60.8742857 C139.484211,60.7466667 139.657895,60.6030952 139.752632,60.4595238 L139.752632,56.3438095 L139.752632,56.3438095 Z" id="Fill-12" sketch:type="MSShapeGroup"></path>
                <path d="M156.694737,52.26 L156.221053,53.4564286 C155.763158,53.1214286 155.068421,52.9619048 154.105263,52.9619048 C153.205263,52.9619048 152.463158,53.3447619 151.926316,54.1104762 C151.389474,54.8761905 151.105263,55.8652381 151.105263,57.077619 C151.105263,58.2261905 151.389474,59.167381 151.957895,59.9011905 C152.510526,60.6190476 153.236842,60.97 154.121053,60.97 C155.084211,60.97 155.826316,60.635 156.331579,59.965 L157.121053,61.0019048 C156.3,61.8154762 155.257895,62.2142857 153.963158,62.2142857 C152.621053,62.2142857 151.578947,61.7357143 150.789474,60.7785714 C150.015789,59.8214286 149.636842,58.5611905 149.636842,56.9978571 C149.636842,55.4664286 150.047368,54.2221429 150.868421,53.2171429 C151.689474,52.2121429 152.747368,51.717619 154.073684,51.717619 C155.178947,51.717619 156.063158,51.8930952 156.694737,52.26" id="Fill-13" sketch:type="MSShapeGroup"></path>
                <path d="M159.489474,58.3059524 C159.489474,57.1733333 159.805263,56.2480952 160.436842,55.5461905 C161.052632,54.8442857 161.857895,54.477381 162.9,54.477381 C163.957895,54.477381 164.810526,54.8283333 165.394737,55.482381 C165.994737,56.1683333 166.294737,57.1095238 166.294737,58.3059524 C166.294737,59.502381 165.994737,60.4595238 165.378947,61.1295238 C164.763158,61.8314286 163.942105,62.182381 162.9,62.182381 C161.810526,62.182381 160.973684,61.8154762 160.373684,61.1295238 C159.789474,60.4435714 159.489474,59.4864286 159.489474,58.3059524 L159.489474,58.3059524 Z M160.878947,58.3059524 C160.878947,60.172381 161.557895,61.097619 162.9,61.097619 C163.515789,61.097619 163.989474,60.8583333 164.368421,60.3478571 C164.715789,59.8692857 164.873684,59.1833333 164.873684,58.3059524 C164.873684,56.4714286 164.210526,55.5621429 162.9,55.5621429 C162.284211,55.5621429 161.794737,55.8014286 161.431579,56.2959524 C161.068421,56.7745238 160.878947,57.4445238 160.878947,58.3059524 L160.878947,58.3059524 Z" id="Fill-14" sketch:type="MSShapeGroup"></path>
                <path d="M177.757895,62.0388095 L177.757895,57.3328571 C177.757895,56.1683333 177.236842,55.5940476 176.226316,55.5940476 C175.878947,55.5940476 175.594737,55.6897619 175.310526,55.8811905 C175.042105,56.072619 174.836842,56.3119048 174.742105,56.5511905 L174.742105,62.0388095 L173.4,62.0388095 L173.4,56.7585714 C173.4,56.407619 173.257895,56.1045238 172.989474,55.8971429 C172.705263,55.6897619 172.342105,55.5940476 171.868421,55.5940476 C171.6,55.5940476 171.315789,55.6897619 171.015789,55.8971429 C170.731579,56.0885714 170.510526,56.3278571 170.368421,56.5671429 L170.368421,62.0388095 L169.042105,62.0388095 L169.042105,54.605 L169.926316,54.605 L170.352632,55.4664286 C170.873684,54.812381 171.521053,54.477381 172.294737,54.477381 C173.368421,54.477381 174.126316,54.812381 174.552632,55.4664286 C174.710526,55.1952381 174.978947,54.9559524 175.389474,54.7485714 C175.8,54.5730952 176.226316,54.477381 176.652632,54.477381 C177.426316,54.477381 178.010526,54.7007143 178.452632,55.1633333 C178.863158,55.6259524 179.084211,56.2640476 179.084211,57.077619 L179.084211,62.0388095 L177.757895,62.0388095" id="Fill-15" sketch:type="MSShapeGroup"></path>
                <path d="M191.036842,62.0388095 L191.036842,57.3328571 C191.036842,56.1683333 190.531579,55.5940476 189.505263,55.5940476 C189.173684,55.5940476 188.873684,55.6897619 188.589474,55.8811905 C188.321053,56.072619 188.131579,56.3119048 188.021053,56.5511905 L188.021053,62.0388095 L186.694737,62.0388095 L186.694737,56.7585714 C186.694737,56.407619 186.552632,56.1045238 186.284211,55.8971429 C186,55.6897619 185.621053,55.5940476 185.163158,55.5940476 C184.894737,55.5940476 184.610526,55.6897619 184.310526,55.8971429 C184.010526,56.0885714 183.789474,56.3278571 183.678947,56.5671429 L183.678947,62.0388095 L182.336842,62.0388095 L182.336842,54.605 L183.221053,54.605 L183.647368,55.4664286 C184.168421,54.812381 184.815789,54.477381 185.573684,54.477381 C186.663158,54.477381 187.405263,54.812381 187.847368,55.4664286 C187.989474,55.1952381 188.273684,54.9559524 188.684211,54.7485714 C189.094737,54.5730952 189.505263,54.477381 189.947368,54.477381 C190.705263,54.477381 191.305263,54.7007143 191.747368,55.1633333 C192.173684,55.6259524 192.378947,56.2640476 192.378947,57.077619 L192.378947,62.0388095 L191.036842,62.0388095" id="Fill-16" sketch:type="MSShapeGroup"></path>
                <path d="M201.963158,58.4654762 L196.531579,58.4654762 C196.531579,59.3269048 196.784211,59.9969048 197.273684,60.4754762 C197.684211,60.8583333 198.236842,61.0657143 198.9,61.0657143 C199.673684,61.0657143 200.305263,60.8583333 200.810526,60.4116667 L201.378947,61.3688095 C201.173684,61.5602381 200.857895,61.7357143 200.431579,61.8952381 C199.894737,62.0866667 199.294737,62.182381 198.647368,62.182381 C197.7,62.182381 196.910526,61.847381 196.231579,61.2411905 C195.505263,60.5392857 195.142105,59.5980952 195.142105,58.417619 C195.142105,57.1892857 195.505263,56.2161905 196.263158,55.4664286 C196.942105,54.812381 197.731579,54.477381 198.647368,54.477381 C199.736842,54.477381 200.573684,54.7645238 201.189474,55.3707143 C201.773684,55.945 202.073684,56.6947619 202.073684,57.6519048 C202.073684,57.9390476 202.026316,58.2102381 201.963158,58.4654762 L201.963158,58.4654762 Z M198.710526,55.5940476 C198.142105,55.5940476 197.636842,55.7854762 197.226316,56.152381 C196.831579,56.5192857 196.626316,56.9659524 196.563158,57.492381 L200.731579,57.492381 C200.731579,56.9819048 200.573684,56.5192857 200.226316,56.1683333 C199.863158,55.7854762 199.357895,55.5940476 198.710526,55.5940476 L198.710526,55.5940476 Z" id="Fill-17" sketch:type="MSShapeGroup"></path>
                <path d="M208.910526,55.8811905 C208.626316,55.6897619 208.326316,55.5940476 208.026316,55.5940476 C207.568421,55.5940476 207.142105,55.8014286 206.794737,56.2480952 C206.447368,56.6628571 206.257895,57.1733333 206.257895,57.7954762 L206.257895,62.0388095 L204.931579,62.0388095 L204.931579,54.605 L206.257895,54.605 L206.257895,55.8014286 C206.747368,54.9240476 207.473684,54.477381 208.421053,54.477381 C208.673684,54.477381 209.005263,54.5252381 209.463158,54.605 L208.910526,55.8811905" id="Fill-18" sketch:type="MSShapeGroup"></path>
                <path d="M217.436842,55.2111905 L216.773684,56.1364286 C216.631579,56.0088095 216.410526,55.8811905 216.047368,55.7695238 C215.7,55.6578571 215.368421,55.5940476 215.036842,55.5940476 C214.326316,55.5940476 213.742105,55.8333333 213.315789,56.3438095 C212.889474,56.8383333 212.668421,57.5242857 212.668421,58.4016667 C212.668421,59.2790476 212.889474,59.9330952 213.315789,60.3797619 C213.773684,60.842381 214.373684,61.0657143 215.131579,61.0657143 C215.731579,61.0657143 216.331579,60.842381 216.947368,60.3797619 L217.484211,61.4964286 C216.773684,61.9590476 215.873684,62.182381 214.815789,62.182381 C213.789474,62.182381 212.936842,61.8314286 212.273684,61.1614286 C211.610526,60.4914286 211.278947,59.5502381 211.278947,58.4016667 C211.278947,57.2211905 211.626316,56.28 212.305263,55.5621429 C213,54.8442857 213.963158,54.477381 215.178947,54.477381 C215.557895,54.477381 215.968421,54.5571429 216.442105,54.7166667 C216.884211,54.8921429 217.215789,55.0516667 217.436842,55.2111905" id="Fill-19" sketch:type="MSShapeGroup"></path>
                <path d="M226.563158,58.4654762 L221.147368,58.4654762 C221.147368,59.3269048 221.384211,59.9969048 221.873684,60.4754762 C222.3,60.8583333 222.852632,61.0657143 223.515789,61.0657143 C224.289474,61.0657143 224.921053,60.8583333 225.426316,60.4116667 L225.978947,61.3688095 C225.773684,61.5602381 225.457895,61.7357143 225.031579,61.8952381 C224.510526,62.0866667 223.910526,62.182381 223.247368,62.182381 C222.315789,62.182381 221.494737,61.847381 220.847368,61.2411905 C220.121053,60.5392857 219.757895,59.5980952 219.757895,58.417619 C219.757895,57.1892857 220.121053,56.2161905 220.878947,55.4664286 C221.557895,54.812381 222.347368,54.477381 223.263158,54.477381 C224.352632,54.477381 225.173684,54.7645238 225.805263,55.3707143 C226.373684,55.945 226.673684,56.6947619 226.673684,57.6519048 C226.673684,57.9390476 226.642105,58.2102381 226.563158,58.4654762 L226.563158,58.4654762 Z M223.326316,55.5940476 C222.726316,55.5940476 222.252632,55.7854762 221.826316,56.152381 C221.447368,56.5192857 221.226316,56.9659524 221.178947,57.492381 L225.347368,57.492381 C225.347368,56.9819048 225.173684,56.5192857 224.842105,56.1683333 C224.478947,55.7854762 223.957895,55.5940476 223.326316,55.5940476 L223.326316,55.5940476 Z" id="Fill-20" sketch:type="MSShapeGroup"></path>
                <path d="M229.531579,55.3707143 L229.831579,54.605 C229.989474,54.7166667 230.194737,54.8283333 230.431579,54.8921429 C230.652632,54.9719048 230.857895,55.0038095 231.063158,55.0038095 C231.378947,55.0038095 231.647368,54.9240476 231.836842,54.732619 C232.042105,54.5571429 232.136842,54.3497619 232.136842,54.062619 C232.136842,53.8552381 232.089474,53.6638095 231.978947,53.5042857 C231.852632,53.3128571 231.584211,53.1214286 231.142105,52.9140476 L230.636842,52.6907143 C230.226316,52.4833333 229.926316,52.26 229.752632,52.0047619 C229.594737,51.7335714 229.5,51.4145238 229.5,51.0316667 C229.5,50.585 229.673684,50.2021429 229.989474,49.915 C230.321053,49.5959524 230.747368,49.452381 231.252632,49.452381 C231.931579,49.452381 232.405263,49.5640476 232.673684,49.7714286 L232.421053,50.5052381 C232.326316,50.4254762 232.136842,50.3457143 231.9,50.2659524 C231.694737,50.2021429 231.473684,50.1702381 231.268421,50.1702381 C230.984211,50.1702381 230.763158,50.2340476 230.589474,50.3935714 C230.431579,50.5690476 230.352632,50.7764286 230.352632,51.0157143 C230.352632,51.1752381 230.368421,51.3347619 230.447368,51.4464286 C230.494737,51.5740476 230.573684,51.6857143 230.684211,51.7654762 C230.794737,51.8452381 231,51.9888095 231.347368,52.132381 L231.836842,52.3716667 C232.263158,52.5630952 232.563158,52.802381 232.721053,53.0735714 C232.894737,53.3447619 232.973684,53.6957143 232.973684,54.1264286 C232.973684,54.5730952 232.784211,54.9559524 232.421053,55.275 C232.057895,55.61 231.552632,55.7535714 230.921053,55.7535714 C230.368421,55.7535714 229.910526,55.6419048 229.531579,55.3707143" id="Fill-21" sketch:type="MSShapeGroup"></path>
                <path d="M239.194737,55.6578571 L238.468421,51.7335714 L237.126316,55.737619 L236.921053,55.737619 L235.515789,51.7335714 L234.805263,55.6578571 L234,55.6578571 L235.168421,49.5640476 L235.547368,49.5640476 L237.015789,53.9988095 L238.373684,49.5640476 L238.752632,49.5640476 L240,55.6578571 L239.194737,55.6578571" id="Fill-22" sketch:type="MSShapeGroup"></path>
            </g>
        </g>
    </g>
</svg>