<?xml version="1.0" encoding="UTF-8" standalone="no"?>
<svg width="152px" height="42px" viewBox="0 0 152 42" version="1.1" xmlns="http://www.w3.org/2000/svg" xmlns:xlink="http://www.w3.org/1999/xlink" xmlns:sketch="http://www.bohemiancoding.com/sketch/ns">
    <!-- Generator: Sketch 3.2.2 (9983) - http://www.bohemiancoding.com/sketch -->
    <title>Logo_Portal</title>
    <desc>Created with Sketch.</desc>
    <defs></defs>
    <g id="Page-1" stroke="none" stroke-width="1" fill="none" fill-rule="evenodd"  >
        <g id="Icons"   transform="translate(-303.000000, -524.000000)">
            <g id="Logo_Portal" sketch:type="MSLayerGroup" transform="translate(303.000000, 524.000000)">
                <path d="M90.32,29.58 L83.54,29.58 C81.55,29.58 79.96,29.36 78.76,28.91 C77.24,28.33 76.15,27.33 75.49,25.94 C75.23,25.39 75.07,24.87 74.97,24.38 C74.87,23.89 74.82,23.31 74.82,22.67 L74.82,10.69 L79.65,10.69 L79.65,22.51 C79.65,23.05 79.71,23.52 79.84,23.93 C79.96,24.33 80.18,24.73 80.5,25.13 C80.95,25.7 81.47,26.07 82.06,26.26 C82.66,26.44 83.41,26.52 84.32,26.52 L90.32,26.52 L90.32,29.58 L90.32,29.58 Z M92.63,10.69 L97.65,10.69 L97.65,29.58 L92.63,29.58 L92.63,10.69 Z M119.87,29.58 L113.91,29.58 L104.85,15.6 L104.85,29.58 L100.36,29.58 L100.36,10.69 L106.4,10.69 L115.31,24.85 L115.31,10.69 L119.87,10.69 L119.87,29.58 L119.87,29.58 Z M143,29.63 L137.52,29.63 L132.72,23.31 L128.27,29.63 L122.66,29.63 L129.98,20.21 L122.82,10.69 L128.46,10.69 L132.75,16.97 L137.34,10.69 L142.81,10.69 L135.6,20.16 L143,29.63 L143,29.63 Z" id="Fill-1" fill="#FFFFFF" sketch:type="MSShapeGroup"></path>
                <path d="M1.79,38.72 C4.4,42.98 41.9,44.48 39.36,33.95 C39.32,33.78 36.45,37.44 30.48,37.75 C22.64,38.26 11.53,36.05 10.09,32.36 C6.65,23.54 23.81,6.35 15.84,13.29 C7.87,20.22 -0.84,34.46 1.79,38.72" id="Fill-2" fill="#DADADA" sketch:type="MSShapeGroup"></path>
                <path d="M19.26,0.5 C13.89,0.37 -6.51,35.57 2.48,38.98 C2.63,39.04 1.36,34.07 4.45,28.24 C8.44,20.52 15.75,11.39 19.23,11.89 C28.5,13.22 33.44,33.42 31.16,22.53 C28.87,11.65 24.64,0.63 19.26,0.5" id="Fill-3" fill="#0D385B" sketch:type="MSShapeGroup"></path>
                <path d="M38.99,33.16 C42.02,28.72 24.7,2.39 27.02,7.29 C30.37,14.16 33.48,25.72 31.58,29 C27.05,36.83 9.18,32.55 16.97,35.44 C24.77,38.34 35.97,37.61 38.99,33.16" id="Fill-4" fill="#8CA259" sketch:type="MSShapeGroup"></path>
                <path d="M59.21,15.21 L54.93,15.21 C55.15,13.79 55.77,12.66 56.79,11.8 C58.21,10.6 60,10 62.15,10 C64.06,10 65.67,10.5 66.97,11.49 C68.27,12.49 68.91,13.67 68.91,15.04 C68.91,15.88 68.63,16.66 68.07,17.35 C67.51,18.06 66.69,18.62 65.62,19.06 C67.04,19.4 68.13,20 68.93,20.86 C69.73,21.72 70.13,22.72 70.13,23.89 C70.13,25.6 69.36,27.04 67.81,28.22 C66.26,29.4 64.29,30 61.89,30 C59.63,30 57.79,29.43 56.35,28.32 C54.92,27.2 54.14,25.66 54,23.74 L58.4,23.74 C58.6,24.73 59.02,25.46 59.67,25.94 C60.33,26.43 61.15,26.66 62.15,26.66 C63.18,26.66 64.05,26.4 64.74,25.85 C65.42,25.31 65.77,24.65 65.77,23.87 C65.77,23.01 65.3,22.28 64.38,21.69 C63.46,21.09 62.13,20.79 60.39,20.77 L60.39,17.69 C61.46,17.61 62.26,17.48 62.79,17.28 C63.32,17.07 63.73,16.79 64.02,16.44 C64.32,16.07 64.47,15.7 64.47,15.3 C64.47,14.79 64.24,14.35 63.8,14.01 C63.35,13.66 62.76,13.5 62.03,13.5 C61.39,13.5 60.81,13.65 60.29,13.97 C59.76,14.29 59.41,14.7 59.21,15.21" id="Fill-5" fill="#FFFFFF" sketch:type="MSShapeGroup"></path>
                <path d="M56,32.52 L56.89,32.52 L56.89,36.88 C56.89,37.27 57.01,37.59 57.27,37.84 C57.52,38.09 57.86,38.22 58.27,38.22 C58.71,38.22 59.05,38.1 59.3,37.85 C59.55,37.61 59.68,37.28 59.68,36.86 L59.68,32.52 L60.58,32.52 L60.58,36.95 C60.58,37.6 60.37,38.1 59.96,38.46 C59.54,38.82 58.98,39 58.28,39 C57.55,39 56.98,38.83 56.59,38.47 C56.2,38.12 56,37.61 56,36.95 L56,32.52" id="Fill-6" fill="#FFFFFF" sketch:type="MSShapeGroup"></path>
                <path d="M65.63,38.89 L65.63,36.19 C65.63,35.69 65.56,35.34 65.4,35.14 C65.25,34.95 64.99,34.85 64.63,34.85 C64.44,34.85 64.24,34.91 64.03,35.02 C63.82,35.13 63.66,35.27 63.54,35.43 L63.54,38.89 L62.7,38.89 L62.7,34.23 L63.28,34.23 L63.54,34.84 C63.82,34.38 64.28,34.15 64.9,34.15 C65.95,34.15 66.47,34.77 66.47,36.01 L66.47,38.89 L65.63,38.89" id="Fill-7" fill="#FFFFFF" sketch:type="MSShapeGroup"></path>
                <path d="M68.94,38.89 L68.94,34.94 L68.29,34.94 L68.29,34.23 L69.79,34.23 L69.79,38.89 L68.94,38.89 L68.94,38.89 Z M69.41,32.47 C69.54,32.47 69.67,32.52 69.77,32.63 C69.87,32.73 69.92,32.85 69.92,32.98 C69.92,33.13 69.87,33.25 69.77,33.35 C69.67,33.46 69.54,33.5 69.41,33.5 C69.26,33.5 69.14,33.46 69.04,33.35 C68.93,33.25 68.88,33.13 68.88,32.98 C68.88,32.84 68.93,32.73 69.04,32.63 C69.13,32.52 69.26,32.47 69.41,32.47 L69.41,32.47 Z" id="Fill-8" fill="#FFFFFF" sketch:type="MSShapeGroup"></path>
                <path d="M74.56,33.07 C74.38,33.02 74.23,32.98 74.08,32.98 C73.81,32.98 73.6,33.08 73.45,33.27 C73.28,33.46 73.19,33.7 73.19,34 C73.19,34.07 73.19,34.15 73.21,34.23 L74.18,34.23 L74.18,34.94 L73.21,34.94 L73.21,38.89 L72.37,38.89 L72.37,34.94 L71.67,34.94 L71.67,34.23 L72.37,34.23 C72.37,33.64 72.52,33.18 72.81,32.84 C73.12,32.5 73.51,32.33 74,32.33 C74.25,32.33 74.51,32.37 74.8,32.46 L74.56,33.07" id="Fill-9" fill="#FFFFFF" sketch:type="MSShapeGroup"></path>
                <path d="M76.62,38.89 L76.62,34.94 L75.97,34.94 L75.97,34.23 L77.46,34.23 L77.46,38.89 L76.62,38.89 L76.62,38.89 Z M77.07,32.47 C77.22,32.47 77.35,32.52 77.45,32.63 C77.55,32.73 77.6,32.85 77.6,32.98 C77.6,33.13 77.55,33.25 77.45,33.35 C77.35,33.46 77.22,33.5 77.07,33.5 C76.94,33.5 76.81,33.46 76.72,33.35 C76.61,33.25 76.56,33.13 76.56,32.98 C76.56,32.84 76.61,32.73 76.7,32.63 C76.81,32.52 76.94,32.47 77.07,32.47 L77.07,32.47 Z" id="Fill-10" fill="#FFFFFF" sketch:type="MSShapeGroup"></path>
                <path d="M83.68,36.65 L80.24,36.65 C80.24,37.19 80.39,37.61 80.69,37.91 C80.97,38.15 81.31,38.28 81.74,38.28 C82.22,38.28 82.62,38.15 82.95,37.87 L83.3,38.47 C83.17,38.59 82.97,38.7 82.71,38.8 C82.37,38.92 81.99,38.98 81.58,38.98 C80.98,38.98 80.47,38.77 80.05,38.39 C79.58,37.95 79.35,37.36 79.35,36.62 C79.35,35.85 79.58,35.24 80.07,34.77 C80.49,34.36 81,34.15 81.58,34.15 C82.26,34.15 82.79,34.33 83.18,34.71 C83.55,35.07 83.74,35.54 83.74,36.14 C83.74,36.32 83.72,36.49 83.68,36.65 L83.68,36.65 Z M81.62,34.85 C81.24,34.85 80.92,34.97 80.67,35.2 C80.43,35.43 80.29,35.71 80.26,36.04 L82.9,36.04 C82.9,35.72 82.79,35.43 82.58,35.21 C82.34,34.97 82.02,34.85 81.62,34.85 L81.62,34.85 Z" id="Fill-11" fill="#FFFFFF" sketch:type="MSShapeGroup"></path>
                <path d="M88.51,38.89 L88.51,38.54 C88.21,38.83 87.78,38.98 87.22,38.98 C86.63,38.98 86.14,38.76 85.78,38.35 C85.41,37.93 85.22,37.37 85.22,36.68 C85.22,35.98 85.43,35.39 85.86,34.89 C86.28,34.4 86.8,34.15 87.38,34.15 C87.87,34.15 88.25,34.26 88.51,34.49 L88.51,32.33 L89.35,32.33 L89.35,38.89 L88.51,38.89 L88.51,38.89 Z M88.51,35.32 C88.29,35 88,34.85 87.63,34.85 C87.18,34.85 86.81,35.01 86.52,35.34 C86.25,35.68 86.1,36.09 86.1,36.61 C86.1,37.72 86.63,38.28 87.67,38.28 C87.8,38.28 87.97,38.24 88.15,38.16 C88.34,38.08 88.45,37.99 88.51,37.9 L88.51,35.32 L88.51,35.32 Z" id="Fill-12" fill="#FFFFFF" sketch:type="MSShapeGroup"></path>
                <path d="M99.24,32.76 L98.94,33.51 C98.65,33.3 98.21,33.2 97.6,33.2 C97.03,33.2 96.56,33.44 96.22,33.92 C95.88,34.4 95.7,35.02 95.7,35.78 C95.7,36.5 95.88,37.09 96.24,37.55 C96.59,38 97.05,38.22 97.61,38.22 C98.22,38.22 98.69,38.01 99.01,37.59 L99.51,38.24 C98.99,38.75 98.33,39 97.51,39 C96.66,39 96,38.7 95.5,38.1 C95.01,37.5 94.77,36.71 94.77,35.73 C94.77,34.77 95.03,33.99 95.55,33.36 C96.07,32.73 96.74,32.42 97.58,32.42 C98.28,32.42 98.84,32.53 99.24,32.76" id="Fill-13" fill="#FFFFFF" sketch:type="MSShapeGroup"></path>
                <path d="M101.01,36.55 C101.01,35.84 101.21,35.26 101.61,34.82 C102,34.38 102.51,34.15 103.17,34.15 C103.84,34.15 104.38,34.37 104.75,34.78 C105.13,35.21 105.32,35.8 105.32,36.55 C105.32,37.3 105.13,37.9 104.74,38.32 C104.35,38.76 103.83,38.98 103.17,38.98 C102.48,38.98 101.95,38.75 101.57,38.32 C101.2,37.89 101.01,37.29 101.01,36.55 L101.01,36.55 Z M101.89,36.55 C101.89,37.72 102.32,38.3 103.17,38.3 C103.56,38.3 103.86,38.15 104.1,37.83 C104.32,37.53 104.42,37.1 104.42,36.55 C104.42,35.4 104,34.83 103.17,34.83 C102.78,34.83 102.47,34.98 102.24,35.29 C102.01,35.59 101.89,36.01 101.89,36.55 L101.89,36.55 Z" id="Fill-14" fill="#FFFFFF" sketch:type="MSShapeGroup"></path>
                <path d="M112.58,38.89 L112.58,35.94 C112.58,35.21 112.25,34.85 111.61,34.85 C111.39,34.85 111.21,34.91 111.03,35.03 C110.86,35.15 110.73,35.3 110.67,35.45 L110.67,38.89 L109.82,38.89 L109.82,35.58 C109.82,35.36 109.73,35.17 109.56,35.04 C109.38,34.91 109.15,34.85 108.85,34.85 C108.68,34.85 108.5,34.91 108.31,35.04 C108.13,35.16 107.99,35.31 107.9,35.46 L107.9,38.89 L107.06,38.89 L107.06,34.23 L107.62,34.23 L107.89,34.77 C108.22,34.36 108.63,34.15 109.12,34.15 C109.8,34.15 110.28,34.36 110.55,34.77 C110.65,34.6 110.82,34.45 111.08,34.32 C111.34,34.21 111.61,34.15 111.88,34.15 C112.37,34.15 112.74,34.29 113.02,34.58 C113.28,34.87 113.42,35.27 113.42,35.78 L113.42,38.89 L112.58,38.89" id="Fill-15" fill="#FFFFFF" sketch:type="MSShapeGroup"></path>
                <path d="M120.99,38.89 L120.99,35.94 C120.99,35.21 120.67,34.85 120.02,34.85 C119.81,34.85 119.62,34.91 119.44,35.03 C119.27,35.15 119.15,35.3 119.08,35.45 L119.08,38.89 L118.24,38.89 L118.24,35.58 C118.24,35.36 118.15,35.17 117.98,35.04 C117.8,34.91 117.56,34.85 117.27,34.85 C117.1,34.85 116.92,34.91 116.73,35.04 C116.54,35.16 116.4,35.31 116.33,35.46 L116.33,38.89 L115.48,38.89 L115.48,34.23 L116.04,34.23 L116.31,34.77 C116.64,34.36 117.05,34.15 117.53,34.15 C118.22,34.15 118.69,34.36 118.97,34.77 C119.06,34.6 119.24,34.45 119.5,34.32 C119.76,34.21 120.02,34.15 120.3,34.15 C120.78,34.15 121.16,34.29 121.44,34.58 C121.71,34.87 121.84,35.27 121.84,35.78 L121.84,38.89 L120.99,38.89" id="Fill-16" fill="#FFFFFF" sketch:type="MSShapeGroup"></path>
                <path d="M127.91,36.65 L124.47,36.65 C124.47,37.19 124.63,37.61 124.94,37.91 C125.2,38.15 125.55,38.28 125.97,38.28 C126.46,38.28 126.86,38.15 127.18,37.87 L127.54,38.47 C127.41,38.59 127.21,38.7 126.94,38.8 C126.6,38.92 126.22,38.98 125.81,38.98 C125.21,38.98 124.71,38.77 124.28,38.39 C123.82,37.95 123.59,37.36 123.59,36.62 C123.59,35.85 123.82,35.24 124.3,34.77 C124.73,34.36 125.23,34.15 125.81,34.15 C126.5,34.15 127.03,34.33 127.42,34.71 C127.79,35.07 127.98,35.54 127.98,36.14 C127.98,36.32 127.95,36.49 127.91,36.65 L127.91,36.65 Z M125.85,34.85 C125.49,34.85 125.17,34.97 124.91,35.2 C124.66,35.43 124.53,35.71 124.49,36.04 L127.13,36.04 C127.13,35.72 127.03,35.43 126.81,35.21 C126.58,34.97 126.26,34.85 125.85,34.85 L125.85,34.85 Z" id="Fill-17" fill="#FFFFFF" sketch:type="MSShapeGroup"></path>
                <path d="M132.31,35.03 C132.13,34.91 131.94,34.85 131.75,34.85 C131.46,34.85 131.19,34.98 130.97,35.26 C130.75,35.52 130.63,35.84 130.63,36.23 L130.63,38.89 L129.79,38.89 L129.79,34.23 L130.63,34.23 L130.63,34.98 C130.94,34.43 131.4,34.15 132,34.15 C132.16,34.15 132.37,34.18 132.66,34.23 L132.31,35.03" id="Fill-18" fill="#FFFFFF" sketch:type="MSShapeGroup"></path>
                <path d="M137.71,34.61 L137.29,35.19 C137.2,35.11 137.06,35.03 136.83,34.96 C136.61,34.89 136.4,34.85 136.19,34.85 C135.74,34.85 135.37,35 135.1,35.32 C134.83,35.63 134.69,36.06 134.69,36.61 C134.69,37.16 134.83,37.57 135.1,37.85 C135.39,38.14 135.77,38.28 136.25,38.28 C136.63,38.28 137.01,38.14 137.4,37.85 L137.74,38.55 C137.29,38.84 136.72,38.98 136.05,38.98 C135.4,38.98 134.86,38.76 134.44,38.34 C134.02,37.92 133.81,37.33 133.81,36.61 C133.81,35.87 134.03,35.28 134.46,34.83 C134.9,34.38 135.51,34.15 136.28,34.15 C136.52,34.15 136.78,34.2 137.08,34.3 C137.36,34.41 137.57,34.51 137.71,34.61" id="Fill-19" fill="#FFFFFF" sketch:type="MSShapeGroup"></path>
                <path d="M143.49,36.65 L140.06,36.65 C140.06,37.19 140.21,37.61 140.52,37.91 C140.79,38.15 141.14,38.28 141.56,38.28 C142.05,38.28 142.45,38.15 142.77,37.87 L143.12,38.47 C142.99,38.59 142.79,38.7 142.52,38.8 C142.19,38.92 141.81,38.98 141.39,38.98 C140.8,38.98 140.28,38.77 139.87,38.39 C139.41,37.95 139.18,37.36 139.18,36.62 C139.18,35.85 139.41,35.24 139.89,34.77 C140.32,34.36 140.82,34.15 141.4,34.15 C142.09,34.15 142.61,34.33 143.01,34.71 C143.37,35.07 143.56,35.54 143.56,36.14 C143.56,36.32 143.54,36.49 143.49,36.65 L143.49,36.65 Z M141.44,34.85 C141.06,34.85 140.76,34.97 140.49,35.2 C140.25,35.43 140.11,35.71 140.08,36.04 L142.72,36.04 C142.72,35.72 142.61,35.43 142.4,35.21 C142.17,34.97 141.84,34.85 141.44,34.85 L141.44,34.85 Z" id="Fill-20" fill="#FFFFFF" sketch:type="MSShapeGroup"></path>
                <path d="M145.37,34.71 L145.56,34.23 C145.66,34.3 145.79,34.37 145.94,34.41 C146.08,34.46 146.21,34.48 146.34,34.48 C146.54,34.48 146.71,34.43 146.83,34.31 C146.96,34.2 147.02,34.07 147.02,33.89 C147.02,33.76 146.99,33.64 146.92,33.54 C146.84,33.42 146.67,33.3 146.39,33.17 L146.07,33.03 C145.81,32.9 145.62,32.76 145.51,32.6 C145.41,32.43 145.35,32.23 145.35,31.99 C145.35,31.71 145.46,31.47 145.66,31.29 C145.87,31.09 146.14,31 146.46,31 C146.89,31 147.19,31.07 147.36,31.2 L147.2,31.66 C147.14,31.61 147.02,31.56 146.87,31.51 C146.74,31.47 146.6,31.45 146.47,31.45 C146.29,31.45 146.15,31.49 146.04,31.59 C145.94,31.7 145.89,31.83 145.89,31.98 C145.89,32.08 145.9,32.18 145.95,32.25 C145.98,32.33 146.03,32.4 146.1,32.45 C146.17,32.5 146.3,32.59 146.52,32.68 L146.83,32.83 C147.1,32.95 147.29,33.1 147.39,33.27 C147.5,33.44 147.55,33.66 147.55,33.93 C147.55,34.21 147.43,34.45 147.2,34.65 C146.97,34.86 146.65,34.95 146.25,34.95 C145.9,34.95 145.61,34.88 145.37,34.71" id="Fill-21" fill="#FFFFFF" sketch:type="MSShapeGroup"></path>
                <path d="M151.49,34.89 L151.03,32.43 L150.18,34.94 L150.05,34.94 L149.16,32.43 L148.71,34.89 L148.2,34.89 L148.94,31.07 L149.18,31.07 L150.11,33.85 L150.97,31.07 L151.21,31.07 L152,34.89 L151.49,34.89" id="Fill-22" fill="#FFFFFF" sketch:type="MSShapeGroup"></path>
            </g>
        </g>
    </g>
</svg>