<?xml version="1.0" encoding="utf-8"?>
<!-- Generator: Adobe Illustrator 17.0.1, SVG Export Plug-In . SVG Version: 6.00 Build 0)  -->
<!DOCTYPE svg PUBLIC "-//W3C//DTD SVG 1.1//EN" "http://www.w3.org/Graphics/SVG/1.1/DTD/svg11.dtd">
<svg version="1.1" id="Layer_1" xmlns:sketch="http://www.bohemiancoding.com/sketch/ns"
	 xmlns="http://www.w3.org/2000/svg" xmlns:xlink="http://www.w3.org/1999/xlink" x="0px" y="0px" width="152px" height="42px"
	 viewBox="0 0 152 42" enable-background="new 0 0 152 42" xml:space="preserve">
<title>Logo_Portal</title>
<desc>Created with Sketch.</desc>
<g id="Page-1">
	<g id="Icons" transform="translate(-303.000000, -524.000000)">
		<g id="Logo_Portal" transform="translate(303.000000, 524.000000)" sketch:type="MSLayerGroup">
			<path id="Fill-1" sketch:type="MSShapeGroup" fill="#0D385B" d="M90.32,29.58h-6.78c-1.99,0-3.58-0.22-4.78-0.67
				c-1.52-0.58-2.61-1.58-3.27-2.97c-0.26-0.55-0.42-1.07-0.52-1.56c-0.1-0.49-0.15-1.07-0.15-1.71V10.69h4.83v11.82
				c0,0.54,0.06,1.01,0.19,1.42c0.12,0.4,0.34,0.8,0.66,1.2c0.45,0.57,0.97,0.94,1.56,1.13c0.6,0.18,1.35,0.26,2.26,0.26h6V29.58
				L90.32,29.58z M92.63,10.69h5.02v18.89h-5.02V10.69z M119.87,29.58h-5.96l-9.06-13.98v13.98h-4.49V10.69h6.04l8.91,14.16V10.69
				h4.56V29.58L119.87,29.58z M143,29.63h-5.48l-4.8-6.32l-4.45,6.32h-5.61l7.32-9.42l-7.16-9.52h5.64l4.29,6.28l4.59-6.28h5.47
				l-7.21,9.47L143,29.63L143,29.63z"/>
			<path id="Fill-2" sketch:type="MSShapeGroup" fill="#DADADA" d="M1.79,38.72c2.61,4.26,40.11,5.76,37.57-4.77
				c-0.04-0.17-2.91,3.49-8.88,3.8c-7.84,0.51-18.95-1.7-20.39-5.39c-3.44-8.82,13.72-26.01,5.75-19.07
				C7.87,20.22-0.84,34.46,1.79,38.72"/>
			<path id="Fill-3" sketch:type="MSShapeGroup" fill="#0D385B" d="M19.26,0.5C13.89,0.37-6.51,35.57,2.48,38.98
				c0.15,0.06-1.12-4.91,1.97-10.74c3.99-7.72,11.3-16.85,14.78-16.35c9.27,1.33,14.21,21.53,11.93,10.64
				C28.87,11.65,24.64,0.63,19.26,0.5"/>
			<path id="Fill-4" sketch:type="MSShapeGroup" fill="#8CA259" d="M38.99,33.16C42.02,28.72,24.7,2.39,27.02,7.29
				c3.35,6.87,6.46,18.43,4.56,21.71c-4.53,7.83-22.4,3.55-14.61,6.44C24.77,38.34,35.97,37.61,38.99,33.16"/>
			<path id="Fill-5" sketch:type="MSShapeGroup" fill="#0D385B" d="M59.21,15.21h-4.28c0.22-1.42,0.84-2.55,1.86-3.41
				C58.21,10.6,60,10,62.15,10c1.91,0,3.52,0.5,4.82,1.49c1.3,1,1.94,2.18,1.94,3.55c0,0.84-0.28,1.62-0.84,2.31
				c-0.56,0.71-1.38,1.27-2.45,1.71c1.42,0.34,2.51,0.94,3.31,1.8c0.8,0.86,1.2,1.86,1.2,3.03c0,1.71-0.77,3.15-2.32,4.33
				C66.26,29.4,64.29,30,61.89,30c-2.26,0-4.1-0.57-5.54-1.68c-1.43-1.12-2.21-2.66-2.35-4.58h4.4c0.2,0.99,0.62,1.72,1.27,2.2
				c0.66,0.49,1.48,0.72,2.48,0.72c1.03,0,1.9-0.26,2.59-0.81c0.68-0.54,1.03-1.2,1.03-1.98c0-0.86-0.47-1.59-1.39-2.18
				c-0.92-0.6-2.25-0.9-3.99-0.92v-3.08c1.07-0.08,1.87-0.21,2.4-0.41c0.53-0.21,0.94-0.49,1.23-0.84c0.3-0.37,0.45-0.74,0.45-1.14
				c0-0.51-0.23-0.95-0.67-1.29c-0.45-0.35-1.04-0.51-1.77-0.51c-0.64,0-1.22,0.15-1.74,0.47C59.76,14.29,59.41,14.7,59.21,15.21"/>
			<path id="Fill-6" sketch:type="MSShapeGroup" fill="#0D385B" d="M56,32.52h0.89v4.36c0,0.39,0.12,0.71,0.38,0.96
				c0.25,0.25,0.59,0.38,1,0.38c0.44,0,0.78-0.12,1.03-0.37c0.25-0.24,0.38-0.57,0.38-0.99v-4.34h0.9v4.43
				c0,0.65-0.21,1.15-0.62,1.51C59.54,38.82,58.98,39,58.28,39c-0.73,0-1.3-0.17-1.69-0.53C56.2,38.12,56,37.61,56,36.95V32.52"/>
			<path id="Fill-7" sketch:type="MSShapeGroup" fill="#0D385B" d="M65.63,38.89v-2.7c0-0.5-0.07-0.85-0.23-1.05
				c-0.15-0.19-0.41-0.29-0.77-0.29c-0.19,0-0.39,0.06-0.6,0.17s-0.37,0.25-0.49,0.41v3.46H62.7v-4.66h0.58l0.26,0.61
				c0.28-0.46,0.74-0.69,1.36-0.69c1.05,0,1.57,0.62,1.57,1.86v2.88H65.63"/>
			<path id="Fill-8" sketch:type="MSShapeGroup" fill="#0D385B" d="M68.94,38.89v-3.95h-0.65v-0.71h1.5v4.66H68.94L68.94,38.89z
				 M69.41,32.47c0.13,0,0.26,0.05,0.36,0.16c0.1,0.1,0.15,0.22,0.15,0.35c0,0.15-0.05,0.27-0.15,0.37
				c-0.1,0.11-0.23,0.15-0.36,0.15c-0.15,0-0.27-0.04-0.37-0.15c-0.11-0.1-0.16-0.22-0.16-0.37c0-0.14,0.05-0.25,0.16-0.35
				C69.13,32.52,69.26,32.47,69.41,32.47L69.41,32.47z"/>
			<path id="Fill-9" sketch:type="MSShapeGroup" fill="#0D385B" d="M74.56,33.07c-0.18-0.05-0.33-0.09-0.48-0.09
				c-0.27,0-0.48,0.1-0.63,0.29c-0.17,0.19-0.26,0.43-0.26,0.73c0,0.07,0,0.15,0.02,0.23h0.97v0.71h-0.97v3.95h-0.84v-3.95h-0.7
				v-0.71h0.7c0-0.59,0.15-1.05,0.44-1.39c0.31-0.34,0.7-0.51,1.19-0.51c0.25,0,0.51,0.04,0.8,0.13L74.56,33.07"/>
			<path id="Fill-10" sketch:type="MSShapeGroup" fill="#0D385B" d="M76.62,38.89v-3.95h-0.65v-0.71h1.49v4.66H76.62L76.62,38.89z
				 M77.07,32.47c0.15,0,0.28,0.05,0.38,0.16c0.1,0.1,0.15,0.22,0.15,0.35c0,0.15-0.05,0.27-0.15,0.37
				c-0.1,0.11-0.23,0.15-0.38,0.15c-0.13,0-0.26-0.04-0.35-0.15c-0.11-0.1-0.16-0.22-0.16-0.37c0-0.14,0.05-0.25,0.14-0.35
				C76.81,32.52,76.94,32.47,77.07,32.47L77.07,32.47z"/>
			<path id="Fill-11" sketch:type="MSShapeGroup" fill="#0D385B" d="M83.68,36.65h-3.44c0,0.54,0.15,0.96,0.45,1.26
				c0.28,0.24,0.62,0.37,1.05,0.37c0.48,0,0.88-0.13,1.21-0.41l0.35,0.6c-0.13,0.12-0.33,0.23-0.59,0.33
				c-0.34,0.12-0.72,0.18-1.13,0.18c-0.6,0-1.11-0.21-1.53-0.59c-0.47-0.44-0.7-1.03-0.7-1.77c0-0.77,0.23-1.38,0.72-1.85
				c0.42-0.41,0.93-0.62,1.51-0.62c0.68,0,1.21,0.18,1.6,0.56c0.37,0.36,0.56,0.83,0.56,1.43C83.74,36.32,83.72,36.49,83.68,36.65
				L83.68,36.65z M81.62,34.85c-0.38,0-0.7,0.12-0.95,0.35c-0.24,0.23-0.38,0.51-0.41,0.84h2.64c0-0.32-0.11-0.61-0.32-0.83
				C82.34,34.97,82.02,34.85,81.62,34.85L81.62,34.85z"/>
			<path id="Fill-12" sketch:type="MSShapeGroup" fill="#0D385B" d="M88.51,38.89v-0.35c-0.3,0.29-0.73,0.44-1.29,0.44
				c-0.59,0-1.08-0.22-1.44-0.63c-0.37-0.42-0.56-0.98-0.56-1.67c0-0.7,0.21-1.29,0.64-1.79c0.42-0.49,0.94-0.74,1.52-0.74
				c0.49,0,0.87,0.11,1.13,0.34v-2.16h0.84v6.56H88.51L88.51,38.89z M88.51,35.32C88.29,35,88,34.85,87.63,34.85
				c-0.45,0-0.82,0.16-1.11,0.49c-0.27,0.34-0.42,0.75-0.42,1.27c0,1.11,0.53,1.67,1.57,1.67c0.13,0,0.3-0.04,0.48-0.12
				c0.19-0.08,0.3-0.17,0.36-0.26V35.32L88.51,35.32z"/>
			<path id="Fill-13" sketch:type="MSShapeGroup" fill="#0D385B" d="M99.24,32.76l-0.3,0.75c-0.29-0.21-0.73-0.31-1.34-0.31
				c-0.57,0-1.04,0.24-1.38,0.72c-0.34,0.48-0.52,1.1-0.52,1.86c0,0.72,0.18,1.31,0.54,1.77c0.35,0.45,0.81,0.67,1.37,0.67
				c0.61,0,1.08-0.21,1.4-0.63l0.5,0.65c-0.52,0.51-1.18,0.76-2,0.76c-0.85,0-1.51-0.3-2.01-0.9c-0.49-0.6-0.73-1.39-0.73-2.37
				c0-0.96,0.26-1.74,0.78-2.37c0.52-0.63,1.19-0.94,2.03-0.94C98.28,32.42,98.84,32.53,99.24,32.76"/>
			<path id="Fill-14" sketch:type="MSShapeGroup" fill="#0D385B" d="M101.01,36.55c0-0.71,0.2-1.29,0.6-1.73
				c0.39-0.44,0.9-0.67,1.56-0.67c0.67,0,1.21,0.22,1.58,0.63c0.38,0.43,0.57,1.02,0.57,1.77s-0.19,1.35-0.58,1.77
				c-0.39,0.44-0.91,0.66-1.57,0.66c-0.69,0-1.22-0.23-1.6-0.66C101.2,37.89,101.01,37.29,101.01,36.55L101.01,36.55z M101.89,36.55
				c0,1.17,0.43,1.75,1.28,1.75c0.39,0,0.69-0.15,0.93-0.47c0.22-0.3,0.32-0.73,0.32-1.28c0-1.15-0.42-1.72-1.25-1.72
				c-0.39,0-0.7,0.15-0.93,0.46C102.01,35.59,101.89,36.01,101.89,36.55L101.89,36.55z"/>
			<path id="Fill-15" sketch:type="MSShapeGroup" fill="#0D385B" d="M112.58,38.89v-2.95c0-0.73-0.33-1.09-0.97-1.09
				c-0.22,0-0.4,0.06-0.58,0.18c-0.17,0.12-0.3,0.27-0.36,0.42v3.44h-0.85v-3.31c0-0.22-0.09-0.41-0.26-0.54
				c-0.18-0.13-0.41-0.19-0.71-0.19c-0.17,0-0.35,0.06-0.54,0.19c-0.18,0.12-0.32,0.27-0.41,0.42v3.43h-0.84v-4.66h0.56l0.27,0.54
				c0.33-0.41,0.74-0.62,1.23-0.62c0.68,0,1.16,0.21,1.43,0.62c0.1-0.17,0.27-0.32,0.53-0.45c0.26-0.11,0.53-0.17,0.8-0.17
				c0.49,0,0.86,0.14,1.14,0.43c0.26,0.29,0.4,0.69,0.4,1.2v3.11H112.58"/>
			<path id="Fill-16" sketch:type="MSShapeGroup" fill="#0D385B" d="M120.99,38.89v-2.95c0-0.73-0.32-1.09-0.97-1.09
				c-0.21,0-0.4,0.06-0.58,0.18c-0.17,0.12-0.29,0.27-0.36,0.42v3.44h-0.84v-3.31c0-0.22-0.09-0.41-0.26-0.54
				c-0.18-0.13-0.42-0.19-0.71-0.19c-0.17,0-0.35,0.06-0.54,0.19c-0.19,0.12-0.33,0.27-0.4,0.42v3.43h-0.85v-4.66h0.56l0.27,0.54
				c0.33-0.41,0.74-0.62,1.22-0.62c0.69,0,1.16,0.21,1.44,0.62c0.09-0.17,0.27-0.32,0.53-0.45c0.26-0.11,0.52-0.17,0.8-0.17
				c0.48,0,0.86,0.14,1.14,0.43c0.27,0.29,0.4,0.69,0.4,1.2v3.11H120.99"/>
			<path id="Fill-17" sketch:type="MSShapeGroup" fill="#0D385B" d="M127.91,36.65h-3.44c0,0.54,0.16,0.96,0.47,1.26
				c0.26,0.24,0.61,0.37,1.03,0.37c0.49,0,0.89-0.13,1.21-0.41l0.36,0.6c-0.13,0.12-0.33,0.23-0.6,0.33
				c-0.34,0.12-0.72,0.18-1.13,0.18c-0.6,0-1.1-0.21-1.53-0.59c-0.46-0.44-0.69-1.03-0.69-1.77c0-0.77,0.23-1.38,0.71-1.85
				c0.43-0.41,0.93-0.62,1.51-0.62c0.69,0,1.22,0.18,1.61,0.56c0.37,0.36,0.56,0.83,0.56,1.43
				C127.98,36.32,127.95,36.49,127.91,36.65L127.91,36.65z M125.85,34.85c-0.36,0-0.68,0.12-0.94,0.35
				c-0.25,0.23-0.38,0.51-0.42,0.84h2.64c0-0.32-0.1-0.61-0.32-0.83C126.58,34.97,126.26,34.85,125.85,34.85L125.85,34.85z"/>
			<path id="Fill-18" sketch:type="MSShapeGroup" fill="#0D385B" d="M132.31,35.03c-0.18-0.12-0.37-0.18-0.56-0.18
				c-0.29,0-0.56,0.13-0.78,0.41c-0.22,0.26-0.34,0.58-0.34,0.97v2.66h-0.84v-4.66h0.84v0.75c0.31-0.55,0.77-0.83,1.37-0.83
				c0.16,0,0.37,0.03,0.66,0.08L132.31,35.03"/>
			<path id="Fill-19" sketch:type="MSShapeGroup" fill="#0D385B" d="M137.71,34.61l-0.42,0.58c-0.09-0.08-0.23-0.16-0.46-0.23
				c-0.22-0.07-0.43-0.11-0.64-0.11c-0.45,0-0.82,0.15-1.09,0.47c-0.27,0.31-0.41,0.74-0.41,1.29s0.14,0.96,0.41,1.24
				c0.29,0.29,0.67,0.43,1.15,0.43c0.38,0,0.76-0.14,1.15-0.43l0.34,0.7c-0.45,0.29-1.02,0.43-1.69,0.43
				c-0.65,0-1.19-0.22-1.61-0.64c-0.42-0.42-0.63-1.01-0.63-1.73c0-0.74,0.22-1.33,0.65-1.78c0.44-0.45,1.05-0.68,1.82-0.68
				c0.24,0,0.5,0.05,0.8,0.15C137.36,34.41,137.57,34.51,137.71,34.61"/>
			<path id="Fill-20" sketch:type="MSShapeGroup" fill="#0D385B" d="M143.49,36.65h-3.43c0,0.54,0.15,0.96,0.46,1.26
				c0.27,0.24,0.62,0.37,1.04,0.37c0.49,0,0.89-0.13,1.21-0.41l0.35,0.6c-0.13,0.12-0.33,0.23-0.6,0.33
				c-0.33,0.12-0.71,0.18-1.13,0.18c-0.59,0-1.11-0.21-1.52-0.59c-0.46-0.44-0.69-1.03-0.69-1.77c0-0.77,0.23-1.38,0.71-1.85
				c0.43-0.41,0.93-0.62,1.51-0.62c0.69,0,1.21,0.18,1.61,0.56c0.36,0.36,0.55,0.83,0.55,1.43
				C143.56,36.32,143.54,36.49,143.49,36.65L143.49,36.65z M141.44,34.85c-0.38,0-0.68,0.12-0.95,0.35
				c-0.24,0.23-0.38,0.51-0.41,0.84h2.64c0-0.32-0.11-0.61-0.32-0.83C142.17,34.97,141.84,34.85,141.44,34.85L141.44,34.85z"/>
			<path id="Fill-21" sketch:type="MSShapeGroup" fill="#0D385B" d="M145.37,34.71l0.19-0.48c0.1,0.07,0.23,0.14,0.38,0.18
				c0.14,0.05,0.27,0.07,0.4,0.07c0.2,0,0.37-0.05,0.49-0.17c0.13-0.11,0.19-0.24,0.19-0.42c0-0.13-0.03-0.25-0.1-0.35
				c-0.08-0.12-0.25-0.24-0.53-0.37l-0.32-0.14c-0.26-0.13-0.45-0.27-0.56-0.43c-0.1-0.17-0.16-0.37-0.16-0.61
				c0-0.28,0.11-0.52,0.31-0.7c0.21-0.2,0.48-0.29,0.8-0.29c0.43,0,0.73,0.07,0.9,0.2l-0.16,0.46c-0.06-0.05-0.18-0.1-0.33-0.15
				c-0.13-0.04-0.27-0.06-0.4-0.06c-0.18,0-0.32,0.04-0.43,0.14c-0.1,0.11-0.15,0.24-0.15,0.39c0,0.1,0.01,0.2,0.06,0.27
				c0.03,0.08,0.08,0.15,0.15,0.2c0.07,0.05,0.2,0.14,0.42,0.23l0.31,0.15c0.27,0.12,0.46,0.27,0.56,0.44
				c0.11,0.17,0.16,0.39,0.16,0.66c0,0.28-0.12,0.52-0.35,0.72c-0.23,0.21-0.55,0.3-0.95,0.3C145.9,34.95,145.61,34.88,145.37,34.71
				"/>
			<path id="Fill-22" sketch:type="MSShapeGroup" fill="#0D385B" d="M151.49,34.89l-0.46-2.46l-0.85,2.51h-0.13l-0.89-2.51
				l-0.45,2.46h-0.51l0.74-3.82h0.24l0.93,2.78l0.86-2.78h0.24l0.79,3.82H151.49"/>
		</g>
	</g>
</g>
</svg>
